%FSTAX23Y23*%
%MOIN*%
%SFA1B1*%

%IPPOS*%
%ADD20C,0.031496*%
%ADD21C,0.010000*%
%ADD22C,0.059055*%
%ADD23R,0.059055X0.059055*%
%ADD24C,0.094488*%
%ADD25C,0.055039*%
%ADD26R,0.055039X0.055039*%
%ADD27C,0.127952*%
%ADD28R,0.059055X0.059055*%
%ADD29C,0.050000*%
%ADD30C,0.118110*%
%LNbinbot_board_up-1*%
%LPD*%
G54D20*
X01615Y-01555D02*
X0251D01*
X0157Y-02135D02*
X0167D01*
X01515Y-0208D02*
X0157Y-02135D01*
X01515Y-0208D02*
Y-01815D01*
X0167Y-0166*
X0251*
X00355Y-0224D02*
Y-02035D01*
X0177Y-0062D02*
X02505D01*
X00355Y-02035D02*
X0177Y-0062D01*
X0098Y-02185D02*
Y-02135D01*
X00685Y-0225D02*
X00915D01*
X0098Y-02185*
X0026Y-0225D02*
X00685D01*
X00204Y-02193D02*
X0026Y-0225D01*
X00174Y-02193D02*
X00204D01*
G54D21*
X02585Y-00687D02*
Y-00445D01*
X01715Y-00825D02*
X02447D01*
X02585Y-00687*
X0054Y-02D02*
X01715Y-00825D01*
X0054Y-02095D02*
Y-02D01*
X00777Y-02135D02*
X00829Y-02083D01*
X00895*
X00925Y-02113*
Y-0216D02*
Y-02113D01*
X0087Y-02215D02*
X00925Y-0216D01*
X0066Y-02215D02*
X0087D01*
X0054Y-02095D02*
X0066Y-02215D01*
X0257Y-0043D02*
X02585Y-00445D01*
X02505Y-0043D02*
X0257D01*
X01935Y-02205D02*
X01959D01*
X01965Y-02199*
X01785Y-02205D02*
X01935D01*
X01965Y-02199D02*
Y-02116D01*
X0105Y-02205D02*
X01785D01*
X0098Y-02135D02*
X0105Y-02205D01*
X02522Y-00887D02*
X02575Y-0094D01*
Y-00955D02*
Y-0094D01*
Y-0112D02*
Y-00955D01*
X0251Y-01185D02*
X02575Y-0112D01*
X00706Y-02083D02*
X00795D01*
X00837Y-02041*
X0093Y-02035D02*
X0094D01*
X0068Y-02024D02*
X0162Y-01085D01*
X00587Y-02017D02*
X01664Y-0094D01*
X0248Y-00985D02*
X0251D01*
X02435Y-0094D02*
X0248Y-00985D01*
X01664Y-0094D02*
X02435D01*
X00587Y-02102D02*
Y-02017D01*
Y-02102D02*
X00662Y-02177D01*
X00797*
X00837Y-02137*
X00877*
X0088Y-02135*
X0068Y-02057D02*
X00706Y-02083D01*
X0068Y-02057D02*
Y-02024D01*
X0162Y-01085D02*
X0251D01*
X0256Y-0211D02*
X02595Y-02076D01*
Y-0127*
X0251Y-01185D02*
X02595Y-0127D01*
X00165Y-02185D02*
X00174Y-02193D01*
X0078Y-02135D02*
X0079D01*
G54D22*
X00755Y-0015D03*
X0251Y-01545D03*
X02505Y-0043D03*
Y-0053D03*
X00495Y-00165D03*
X02545Y-0211D03*
Y-0201D03*
X00165Y-02085D03*
Y-01985D03*
X0251Y-00885D03*
Y-00985D03*
Y-01085D03*
Y-01185D03*
G54D23*
X00855Y-0015D03*
X00595Y-00165D03*
G54D24*
X00499Y-02501D03*
X01111D03*
X01489D03*
X02101D03*
G54D25*
X0063Y-02035D03*
X0068Y-02135D03*
X0093Y-02035D03*
X0073D03*
X0088Y-02135D03*
X0078D03*
X0083Y-02035D03*
X0162D03*
X0167Y-02135D03*
X0192Y-02035D03*
X0172D03*
X0187Y-02135D03*
X0177D03*
X0182Y-02035D03*
G54D26*
X0098Y-02135D03*
X0197D03*
G54D27*
X0058Y-02385D03*
X0103D03*
X0157D03*
X0202D03*
G54D28*
X0251Y-01645D03*
X02505Y-0063D03*
X02545Y-0221D03*
X00165Y-02185D03*
X0251Y-01285D03*
G54D29*
X01615Y-01555D03*
G54D30*
X00149Y-00154D03*
X02414Y-00164D03*
X0243Y-0247D03*
X00165D03*
M02*