%FSTAX23Y23*%
%MOIN*%
%SFA1B1*%

%IPPOS*%
%ADD21C,0.010000*%
%ADD33C,0.007874*%
%ADD34C,0.005000*%
%LNbinbot_board_up-1*%
%LPD*%
G54D21*
X02498Y-01733D02*
X02524D01*
X02511Y-0172D02*
Y-01746D01*
X0243Y-0165D02*
X02404D01*
X02391Y-01636*
X02404Y-01623*
X0243*
X02411*
Y-0165*
X02391Y-0161D02*
X0243D01*
Y-01584*
Y-01571D02*
X02391D01*
X02404Y-01558*
X02391Y-01545*
X0243*
X02505Y-00721D02*
X02531D01*
X02518Y-00708D02*
Y-00735D01*
X0235Y-0041D02*
X0234Y-004D01*
Y-0038*
X0235Y-0037*
X0236*
X0237Y-0038*
Y-004*
X02379Y-0041*
X02389*
X02399Y-004*
Y-0038*
X02389Y-0037*
X02399Y-0046D02*
Y-0044D01*
X02389Y-0043*
X0237*
X0236Y-0044*
Y-0046*
X0237Y-0047*
X02379*
Y-0043*
X0236Y-0049D02*
X02399D01*
X02379*
X0237Y-005*
X0236Y-0051*
Y-00519*
Y-00549D02*
X02399Y-00569D01*
X0236Y-00589*
X02399Y-00619D02*
Y-00639D01*
X02389Y-00649*
X0237*
X0236Y-00639*
Y-00619*
X0237Y-00609*
X02389*
X02399Y-00619*
X01635Y-0024D02*
X01674Y-003D01*
Y-0024D02*
X01635Y-003D01*
X01694D02*
Y-0024D01*
X01724*
X01734Y-0025*
Y-0027*
X01724Y-0028*
X01694*
X01714D02*
X01734Y-003D01*
X01784Y-0024D02*
X01764D01*
X01754Y-0025*
Y-0029*
X01764Y-003*
X01784*
X01794Y-0029*
Y-0025*
X01784Y-0024*
X01814D02*
Y-003D01*
X01844*
X01854Y-0029*
Y-0028*
X01844Y-0027*
X01814*
X01844*
X01854Y-0026*
Y-0025*
X01844Y-0024*
X01814*
X01904D02*
X01884D01*
X01874Y-0025*
Y-0029*
X01884Y-003*
X01904*
X01914Y-0029*
Y-0025*
X01904Y-0024*
X01934D02*
X01974D01*
X01954*
Y-003*
X01994Y-0024D02*
X02014D01*
X02004*
Y-003*
X01994*
X02014*
X02084Y-0025D02*
X02074Y-0024D01*
X02054*
X02044Y-0025*
Y-0029*
X02054Y-003*
X02074*
X02084Y-0029*
X02144Y-0025D02*
X02134Y-0024D01*
X02114*
X02104Y-0025*
Y-0026*
X02114Y-0027*
X02134*
X02144Y-0028*
Y-0029*
X02134Y-003*
X02114*
X02104Y-0029*
X0228Y-00857D02*
X02306D01*
X02293*
Y-00896*
X02319Y-0091D02*
Y-0087D01*
X02339*
X02345Y-00877*
Y-0089*
X02339Y-00896*
X02319*
X02358D02*
X02371D01*
X02365*
Y-00857*
X02358*
X02391Y-00877D02*
X02417D01*
X00694Y-01815D02*
X00684Y-01805D01*
X00664*
X00655Y-01815*
Y-01855*
X00664Y-01865*
X00684*
X00694Y-01855*
X00724Y-01865D02*
X00744D01*
X00754Y-01855*
Y-01835*
X00744Y-01825*
X00724*
X00714Y-01835*
Y-01855*
X00724Y-01865*
X00774D02*
Y-01825D01*
X00804*
X00814Y-01835*
Y-01865*
X00844Y-01815D02*
Y-01825D01*
X00834*
X00854*
X00844*
Y-01855*
X00854Y-01865*
X00884Y-01825D02*
Y-01865D01*
Y-01845*
X00894Y-01835*
X00904Y-01825*
X00914*
X00954Y-01865D02*
X00974D01*
X00984Y-01855*
Y-01835*
X00974Y-01825*
X00954*
X00944Y-01835*
Y-01855*
X00954Y-01865*
X01004D02*
X01024D01*
X01014*
Y-01805*
X01004*
X00927Y-00127D02*
Y-00167D01*
X00953*
X00973D02*
X00986D01*
X00993Y-0016*
Y-00147*
X00986Y-00141*
X00973*
X00966Y-00147*
Y-0016*
X00973Y-00167*
X01032Y-00141D02*
X01012D01*
X01006Y-00147*
Y-0016*
X01012Y-00167*
X01032*
X01045D02*
Y-00127D01*
Y-00154D02*
X01065Y-00141D01*
X01045Y-00154D02*
X01065Y-00167D01*
X01085Y-00147D02*
X01111D01*
X01098Y-00134D02*
Y-0016D01*
X00155Y-02281D02*
X00181D01*
X00168Y-02268D02*
Y-02295D01*
X00176Y-01882D02*
X0017Y-01875D01*
X00156*
X0015Y-01882*
Y-01888*
X00156Y-01895*
X0017*
X00176Y-01901*
Y-01908*
X0017Y-01915*
X00156*
X0015Y-01908*
X02556Y-01902D02*
X0255Y-01895D01*
X02536*
X0253Y-01902*
Y-01908*
X02536Y-01915*
X0255*
X02556Y-01921*
Y-01928*
X0255Y-01935*
X02536*
X0253Y-01928*
X02535Y-02301D02*
X02561D01*
X02548Y-02288D02*
Y-02315D01*
X02221Y-0097D02*
X02214Y-00963D01*
X02201*
X02195Y-0097*
Y-00996*
X02201Y-01003*
X02214*
X02221Y-00996*
Y-00983*
X02208*
X02234Y-00977D02*
Y-01003D01*
Y-0099*
X0224Y-00983*
X02247Y-00977*
X02254*
X02293Y-01003D02*
X0228D01*
X02273Y-00996*
Y-00983*
X0228Y-00977*
X02293*
X02299Y-00983*
Y-0099*
X02273*
X02332Y-01003D02*
X02319D01*
X02313Y-00996*
Y-00983*
X02319Y-00977*
X02332*
X02339Y-00983*
Y-0099*
X02313*
X02352Y-01003D02*
Y-00977D01*
X02372*
X02378Y-00983*
Y-01003*
X02391Y-00983D02*
X02418D01*
X02404Y-0097D02*
Y-00996D01*
X0228Y-01252D02*
X02306D01*
X02293*
Y-01291*
X02319Y-01305D02*
Y-01265D01*
X02339*
X02345Y-01272*
Y-01285*
X02339Y-01291*
X02319*
X02358D02*
X02371D01*
X02365*
Y-01252*
X02358*
X02391Y-01272D02*
X02417D01*
X02404Y-01259D02*
Y-01285D01*
X01734Y-01825D02*
X01724Y-01815D01*
X01704*
X01695Y-01825*
Y-01835*
X01704Y-01845*
X01724*
X01734Y-01855*
Y-01865*
X01724Y-01875*
X01704*
X01695Y-01865*
X01784Y-01875D02*
X01764D01*
X01754Y-01865*
Y-01845*
X01764Y-01835*
X01784*
X01794Y-01845*
Y-01855*
X01754*
X01814Y-01875D02*
Y-01835D01*
X01844*
X01854Y-01845*
Y-01875*
X01874D02*
X01904D01*
X01914Y-01865*
X01904Y-01855*
X01884*
X01874Y-01845*
X01884Y-01835*
X01914*
X01944Y-01875D02*
X01964D01*
X01974Y-01865*
Y-01845*
X01964Y-01835*
X01944*
X01934Y-01845*
Y-01865*
X01944Y-01875*
X01994Y-01835D02*
Y-01875D01*
Y-01855*
X02004Y-01845*
X02014Y-01835*
X02024*
X01625Y-00105D02*
Y-00165D01*
X01654*
X01664Y-00155*
Y-00145*
X01654Y-00135*
X01625*
X01654*
X01664Y-00125*
Y-00115*
X01654Y-00105*
X01625*
X01684Y-00165D02*
X01704D01*
X01694*
Y-00125*
X01684*
X01734Y-00165D02*
Y-00125D01*
X01764*
X01774Y-00135*
Y-00165*
X01794Y-00105D02*
Y-00165D01*
X01824*
X01834Y-00155*
Y-00145*
Y-00135*
X01824Y-00125*
X01794*
X01864Y-00165D02*
X01884D01*
X01894Y-00155*
Y-00135*
X01884Y-00125*
X01864*
X01854Y-00135*
Y-00155*
X01864Y-00165*
X01924Y-00115D02*
Y-00125D01*
X01914*
X01934*
X01924*
Y-00155*
X01934Y-00165*
X02024Y-00125D02*
Y-00155D01*
X02034Y-00165*
X02064*
Y-00125*
X02084Y-00185D02*
Y-00125D01*
X02114*
X02124Y-00135*
Y-00155*
X02114Y-00165*
X02084*
X02285Y-01062D02*
X02311D01*
X02298*
Y-01101*
X02324Y-01115D02*
Y-01075D01*
X02344*
X0235Y-01082*
Y-01095*
X02344Y-01101*
X02324*
X02364D02*
X02377D01*
X0237*
Y-01062*
X02364*
X02231Y-01167D02*
X02224Y-0116D01*
X02211*
X02205Y-01167*
Y-01193*
X02211Y-012*
X02224*
X02231Y-01193*
Y-0118*
X02218*
X02244Y-01173D02*
Y-012D01*
Y-01186*
X0225Y-0118*
X02257Y-01173*
X02264*
X02303Y-012D02*
X0229D01*
X02283Y-01193*
Y-0118*
X0229Y-01173*
X02303*
X02309Y-0118*
Y-01186*
X02283*
X02342Y-012D02*
X02329D01*
X02323Y-01193*
Y-0118*
X02329Y-01173*
X02342*
X02349Y-0118*
Y-01186*
X02323*
X02362Y-012D02*
Y-01173D01*
X02382*
X02388Y-0118*
Y-012*
X02401Y-0118D02*
X02428D01*
X02395Y-01885D02*
X02385Y-01875D01*
Y-01855*
X02395Y-01845*
X02405*
X02415Y-01855*
Y-01875*
X02425Y-01885*
X02435*
X02445Y-01875*
Y-01855*
X02435Y-01845*
X02445Y-01935D02*
Y-01915D01*
X02435Y-01905*
X02415*
X02405Y-01915*
Y-01935*
X02415Y-01945*
X02425*
Y-01905*
X02445Y-01965D02*
X02405D01*
Y-01995*
X02415Y-02005*
X02445*
Y-02025D02*
Y-02054D01*
X02435Y-02064*
X02425Y-02054*
Y-02035*
X02415Y-02025*
X02405Y-02035*
Y-02064*
X02445Y-02094D02*
Y-02114D01*
X02435Y-02124*
X02415*
X02405Y-02114*
Y-02094*
X02415Y-02084*
X02435*
X02445Y-02094*
X02405Y-02144D02*
X02445D01*
X02425*
X02415Y-02154*
X02405Y-02164*
Y-02174*
X02445Y-02244D02*
Y-02204D01*
X02405Y-02244*
X02395*
X02385Y-02234*
Y-02214*
X02395Y-02204*
X00031Y-0198D02*
X00021Y-0197D01*
Y-0195*
X00031Y-01941*
X00041*
X00051Y-0195*
Y-0197*
X00061Y-0198*
X00071*
X00081Y-0197*
Y-0195*
X00071Y-01941*
X00081Y-0203D02*
Y-0201D01*
X00071Y-02*
X00051*
X00041Y-0201*
Y-0203*
X00051Y-0204*
X00061*
Y-02*
X00081Y-0206D02*
X00041D01*
Y-0209*
X00051Y-021*
X00081*
Y-0212D02*
Y-0215D01*
X00071Y-0216*
X00061Y-0215*
Y-0213*
X00051Y-0212*
X00041Y-0213*
Y-0216*
X00081Y-0219D02*
Y-0221D01*
X00071Y-0222*
X00051*
X00041Y-0221*
Y-0219*
X00051Y-0218*
X00071*
X00081Y-0219*
X00041Y-0224D02*
X00081D01*
X00061*
X00051Y-0225*
X00041Y-0226*
Y-0227*
X00081Y-023D02*
Y-0232D01*
Y-0231*
X00021*
X00031Y-023*
X0258Y-01169D02*
X0262D01*
Y-0115*
X02613Y-01143*
X02606*
X026*
X02593Y-0115*
Y-01169*
Y-0113D02*
X02613D01*
X0262Y-01124*
Y-01104*
X02593*
X02587Y-01084D02*
X02593D01*
Y-01091*
Y-01078*
Y-01084*
X02613*
X0262Y-01078*
X02587Y-01051D02*
X02593D01*
Y-01058*
Y-01045*
Y-01051*
X02613*
X0262Y-01045*
Y-01019D02*
Y-01005D01*
X02613Y-00999*
X026*
X02593Y-01005*
Y-01019*
X026Y-01025*
X02613*
X0262Y-01019*
Y-00986D02*
X02593D01*
Y-00966*
X026Y-0096*
X0262*
G54D33*
X01144Y-02135D02*
D01*
X01144Y-02134*
X01144Y-02134*
X01144Y-02134*
X01144Y-02133*
X01144Y-02133*
X01144Y-02133*
X01144Y-02133*
X01144Y-02132*
X01143Y-02132*
X01143Y-02132*
X01143Y-02132*
X01143Y-02132*
X01143Y-02131*
X01142Y-02131*
X01142Y-02131*
X01142Y-02131*
X01142Y-02131*
X01141Y-02131*
X01141Y-02131*
X01141Y-02131*
X01141Y-02131*
X0114Y-02131*
X0114*
X0114Y-02131*
X0114Y-02131*
X01139Y-02131*
X01139Y-02131*
X01139Y-02131*
X01139Y-02131*
X01138Y-02131*
X01138Y-02131*
X01138Y-02131*
X01138Y-02132*
X01137Y-02132*
X01137Y-02132*
X01137Y-02132*
X01137Y-02132*
X01137Y-02133*
X01137Y-02133*
X01137Y-02133*
X01136Y-02133*
X01136Y-02134*
X01136Y-02134*
X01136Y-02134*
X01136Y-02135*
X01136Y-02135*
X01136Y-02135*
X01136Y-02135*
X01136Y-02136*
X01137Y-02136*
X01137Y-02136*
X01137Y-02136*
X01137Y-02137*
X01137Y-02137*
X01137Y-02137*
X01137Y-02137*
X01138Y-02137*
X01138Y-02138*
X01138Y-02138*
X01138Y-02138*
X01139Y-02138*
X01139Y-02138*
X01139Y-02138*
X01139Y-02138*
X0114Y-02138*
X0114Y-02138*
X0114Y-02138*
X0114*
X01141Y-02138*
X01141Y-02138*
X01141Y-02138*
X01141Y-02138*
X01142Y-02138*
X01142Y-02138*
X01142Y-02138*
X01142Y-02138*
X01143Y-02138*
X01143Y-02137*
X01143Y-02137*
X01143Y-02137*
X01143Y-02137*
X01144Y-02137*
X01144Y-02136*
X01144Y-02136*
X01144Y-02136*
X01144Y-02136*
X01144Y-02135*
X01144Y-02135*
X01144Y-02135*
X01144Y-02135*
X02134D02*
D01*
X02134Y-02134*
X02134Y-02134*
X02134Y-02134*
X02134Y-02133*
X02134Y-02133*
X02134Y-02133*
X02134Y-02133*
X02134Y-02132*
X02133Y-02132*
X02133Y-02132*
X02133Y-02132*
X02133Y-02132*
X02133Y-02131*
X02132Y-02131*
X02132Y-02131*
X02132Y-02131*
X02132Y-02131*
X02131Y-02131*
X02131Y-02131*
X02131Y-02131*
X02131Y-02131*
X0213Y-02131*
X0213*
X0213Y-02131*
X0213Y-02131*
X02129Y-02131*
X02129Y-02131*
X02129Y-02131*
X02129Y-02131*
X02128Y-02131*
X02128Y-02131*
X02128Y-02131*
X02128Y-02132*
X02127Y-02132*
X02127Y-02132*
X02127Y-02132*
X02127Y-02132*
X02127Y-02133*
X02127Y-02133*
X02127Y-02133*
X02126Y-02133*
X02126Y-02134*
X02126Y-02134*
X02126Y-02134*
X02126Y-02135*
X02126Y-02135*
X02126Y-02135*
X02126Y-02135*
X02126Y-02136*
X02127Y-02136*
X02127Y-02136*
X02127Y-02136*
X02127Y-02137*
X02127Y-02137*
X02127Y-02137*
X02127Y-02137*
X02128Y-02137*
X02128Y-02138*
X02128Y-02138*
X02128Y-02138*
X02129Y-02138*
X02129Y-02138*
X02129Y-02138*
X02129Y-02138*
X0213Y-02138*
X0213Y-02138*
X0213Y-02138*
X0213*
X02131Y-02138*
X02131Y-02138*
X02131Y-02138*
X02131Y-02138*
X02132Y-02138*
X02132Y-02138*
X02132Y-02138*
X02132Y-02138*
X02133Y-02138*
X02133Y-02137*
X02133Y-02137*
X02133Y-02137*
X02133Y-02137*
X02134Y-02137*
X02134Y-02136*
X02134Y-02136*
X02134Y-02136*
X02134Y-02136*
X02134Y-02135*
X02134Y-02135*
X02134Y-02135*
X02134Y-02135*
X00705Y-001D02*
X00905D01*
Y-002D02*
Y-001D01*
X00705Y-002D02*
X00905D01*
X00705D02*
Y-001D01*
X0256Y-01695D02*
Y-01495D01*
X0246Y-01695D02*
X0256D01*
X0246D02*
Y-01495D01*
X0256*
X02455Y-0068D02*
X02555D01*
Y-0038*
X02455D02*
X02555D01*
X02455Y-0068D02*
Y-0038D01*
X00445Y-00215D02*
Y-00115D01*
Y-00215D02*
X00645D01*
Y-00115*
X00445D02*
X00645D01*
X02495Y-0226D02*
Y-0196D01*
X02595*
Y-0226D02*
Y-0196D01*
X02495Y-0226D02*
X02595D01*
X00115Y-02235D02*
Y-01935D01*
X00215*
Y-02235D02*
Y-01935D01*
X00115Y-02235D02*
X00215D01*
X0246Y-01335D02*
X0256D01*
Y-00835*
X0246Y-01335D02*
Y-00835D01*
X0256*
G54D34*
X00495Y-02705D02*
X01115D01*
X00495Y-0197D02*
X01115D01*
Y-02705D02*
Y-02561D01*
Y-02442D02*
Y-0197D01*
X00495Y-02705D02*
Y-02561D01*
Y-02442D02*
Y-0197D01*
X01485Y-02705D02*
X02105D01*
X01485Y-0197D02*
X02105D01*
Y-02705D02*
Y-02561D01*
Y-02442D02*
Y-0197D01*
X01485Y-02705D02*
Y-02561D01*
Y-02442D02*
Y-0197D01*
M02*