%FSTAX23Y23*%
%MOIN*%
%SFA1B1*%

%IPPOS*%
%ADD10C,0.010000*%
%ADD12C,0.047244*%
%ADD13R,0.059055X0.070866*%
%ADD26C,0.031496*%
%ADD27C,0.019685*%
%ADD28C,0.039370*%
%ADD29C,0.059055*%
%ADD30R,0.059055X0.059055*%
%ADD31C,0.070866*%
%ADD32R,0.070866X0.070866*%
%ADD33R,0.053150X0.053150*%
%ADD34C,0.053150*%
%ADD35R,0.070866X0.070866*%
%ADD36C,0.078740*%
%ADD37C,0.050000*%
%ADD38C,0.118110*%
%ADD39C,0.157480*%
%ADD40R,0.040551X0.078740*%
%ADD41C,0.078740*%
%LNbinbot_board_ver4-1*%
%LPD*%
G54D10*
X01795Y-001D02*
X018Y-00105D01*
X0346Y-0297D02*
X03525Y-02905D01*
X03315Y-0297D02*
X0346D01*
X0322Y-02875D02*
X03315Y-0297D01*
X03065Y-02875D02*
X0322D01*
X03385Y-02865D02*
X03425Y-02905D01*
X03385Y-02865D02*
Y-0265D01*
X02947Y-02212D02*
X03385Y-0265D01*
X02182Y-02212D02*
X02947D01*
X0055Y-03095D02*
X04581D01*
X00525Y-0308D02*
X00535D01*
X0055Y-03095*
X04581D02*
X04641Y-03035D01*
X01985Y-0208D02*
X02085Y-0218D01*
X01731Y-0208D02*
X01985D01*
X01656Y-02155D02*
X01731Y-0208D01*
X0219Y-019D02*
X02505Y-01585D01*
Y-01575*
X04641Y-0146D02*
Y-03035D01*
X02505Y-02895D02*
X0263Y-0302D01*
X0295*
X0125Y-027D02*
X01343D01*
X01388Y-02655*
X02065Y-02892D02*
X02092Y-02919D01*
X02052Y-02892D02*
X02065D01*
X02092Y-02932D02*
Y-02919D01*
X0295Y-0302D02*
X03065Y-02905D01*
X0219Y-0215D02*
Y-019D01*
X01206Y-00985D02*
Y-00848D01*
X01345Y-0071*
X00135Y-02525D02*
Y-01678D01*
X00797Y-01016D02*
Y-01007D01*
X00798Y-01006D02*
X00806D01*
X00135Y-01678D02*
X00797Y-01016D01*
Y-01007D02*
X00798Y-01006D01*
X00914Y-00985D02*
X0154Y-00359D01*
X00906Y-00985D02*
X00914D01*
X0154Y-00359D02*
Y-00105D01*
X0198Y-0017D02*
X02082D01*
X0173Y-00205D02*
X01834D01*
X016Y-00245D02*
Y-00075D01*
Y-00245D02*
X0193Y-00575D01*
X0211*
X0242Y-00725D02*
X0253D01*
X0282Y-00435D02*
X03125D01*
X0253Y-00725D02*
X0282Y-00435D01*
X02305Y-0017D02*
X02355Y-0012D01*
X02065Y-0017D02*
X02305D01*
X01915Y-00105D02*
X0198Y-0017D01*
X02355Y-0012D02*
Y-001D01*
X02455Y-002D02*
Y-001D01*
Y-0028D02*
Y-00205D01*
X01815D02*
X0245D01*
X02455Y-002*
Y-00205D02*
Y-002D01*
Y-001D02*
Y-00085D01*
X01675Y-0015D02*
X0173Y-00205D01*
X0001Y-00365D02*
X00195Y-0055D01*
Y-0056D02*
Y-0055D01*
X0001Y-00365D02*
Y-0017D01*
X01675Y-0015D02*
Y-00118D01*
X01475Y-0005D02*
X01575D01*
X016Y-00075*
X01425Y-00105D02*
X0148Y-0005D01*
X01601Y-02143D02*
X02233Y-01511D01*
X02105Y-0229D02*
X0219Y-02205D01*
Y-0215*
X02715Y-02915D02*
X02716Y-02913D01*
Y-02758*
Y-0278D02*
Y-02736D01*
X02727Y-02904D02*
X02734D01*
X02706Y-02883D02*
Y-02876D01*
Y-02883D02*
X02727Y-02904D01*
X01039Y-02532D02*
X02512D01*
X02716Y-02736*
X01811Y-0229D02*
X02105D01*
X00275Y-02615D02*
X00295Y-02635D01*
X01049*
X00135Y-02525D02*
X00215Y-02605D01*
X01049Y-02635D02*
X01084Y-026D01*
X01085*
X0021Y-0255D02*
X00275Y-02615D01*
X0021Y-0255D02*
Y-01885D01*
X01006Y-01088*
Y-00985*
X02983Y-00243D02*
X03Y-0026D01*
X02983Y-00243D02*
Y-00085D01*
X03491Y-00975D02*
X0351Y-00993D01*
X01501Y-02178D02*
X02705Y-00975D01*
X03491*
X0351Y-01096D02*
Y-00993D01*
X03144Y-01511D02*
X03266Y-01634D01*
X0397Y-00942D02*
Y-00929D01*
X0001Y-0017D02*
X00148Y-00031D01*
X02201*
X04455Y-00425D02*
X04479D01*
X04489Y-00435*
X03562Y-02015D02*
X03565Y-02017D01*
X03562Y-02015D02*
X03568Y-02009D01*
X01771Y-0233D02*
X01776Y-02325D01*
X0113Y-0233D02*
X01771D01*
X01095Y-02365D02*
X0113Y-0233D01*
X01095Y-0241D02*
Y-02365D01*
X0125Y-0262D02*
Y-0261D01*
X01205Y-02665D02*
X0125Y-0262D01*
X00275Y-02665D02*
X01205D01*
X00215Y-02605D02*
X00275Y-02665D01*
X0027Y-027D02*
X0125D01*
X00085Y-02515D02*
Y-01651D01*
Y-02515D02*
X0027Y-027D01*
X00085Y-01651D02*
X00706Y-01029D01*
Y-00985*
X00802Y-02295D02*
X01039Y-02532D01*
X00486Y-02295D02*
X00802D01*
X03255Y-01165D02*
X03276D01*
X03321Y-0112*
X03255Y-01265D02*
X0357D01*
X03666Y-0143D02*
Y-01361D01*
X0357Y-01265D02*
X03666Y-01361D01*
X03321Y-0112D02*
X03486D01*
X0351Y-01096*
X02445Y-00075D02*
X02455Y-00085D01*
X02201Y-00031D02*
X02255Y-00085D01*
X02355D02*
X02366D01*
X01776Y-02325D02*
X01811Y-0229D01*
X01501Y-0219D02*
Y-02178D01*
X01601Y-0219D02*
Y-02143D01*
X02233Y-01511D02*
X03144D01*
X04577Y-00935D02*
X04596Y-00915D01*
X04576Y-00935D02*
X04577D01*
X00701Y-0098D02*
X00716Y-00965D01*
X00601Y-0219D02*
Y-02146D01*
X00608Y-0214*
X00633Y-02115*
X00802Y-02295D02*
Y-0219D01*
X00801Y-0219D02*
X00802Y-0219D01*
X00806Y-00989D02*
Y-00985D01*
X01685Y-0245D02*
Y-0244D01*
X01411Y-02115D02*
X01451Y-02155D01*
Y-0223D02*
X01476Y-02255D01*
X01451Y-0223D02*
Y-02155D01*
X00633Y-02115D02*
X01411D01*
X01476Y-02255D02*
X01616D01*
X01656Y-02215D02*
Y-02155D01*
X01616Y-02255D02*
X01656Y-02215D01*
X01701Y-0219D02*
X01707Y-02195D01*
X04576Y-01395D02*
X04641Y-0146D01*
X03266Y-01263D02*
Y-0125D01*
Y-01693D02*
Y-01634D01*
Y-01747D02*
Y-01693D01*
X03666Y-01985D02*
Y-01845D01*
X03266Y-01793D02*
Y-0178D01*
X03291Y-01818D02*
X0364D01*
X03266Y-01793D02*
X03291Y-01818D01*
X03571Y-01595D02*
Y-01575D01*
X0364Y-01818D02*
X03641Y-0182D01*
X03666Y-01845*
X00408Y-02258D02*
X00611D01*
X00361Y-0259D02*
Y-02305D01*
X00408Y-02258*
X00651Y-02165D02*
X00682Y-02135D01*
X00651Y-02217D02*
Y-02165D01*
X00611Y-02258D02*
X00651Y-02217D01*
X00682Y-02135D02*
X00818D01*
X00851Y-02167*
X00857Y-02235D02*
X01356D01*
X01401Y-0219*
X00851Y-02229D02*
Y-02167D01*
Y-02229D02*
X00857Y-02235D01*
X00456Y-02325D02*
X00486Y-02295D01*
X00416Y-02325D02*
X00456D01*
X00716Y-0219D02*
X00724Y-02197D01*
G54D12*
X0234Y-0028D02*
X02455D01*
X03455*
X0234Y-0087D02*
Y-0028D01*
G54D13*
X03266Y-01163D03*
Y-01257D03*
Y-01693D03*
Y-01787D03*
G54D26*
X03465Y-0066D02*
X03744D01*
X03565Y-02105D02*
Y-02017D01*
X0375Y-00529D02*
X03759Y-0052D01*
X03752Y-00645D02*
X03765D01*
X03727Y-00667D02*
X03729D01*
X03656Y-01575D02*
X03676Y-01595D01*
G54D27*
X0101Y-00535D02*
X01095Y-0062D01*
X0083Y-00535D02*
X0101D01*
X0057Y-00275D02*
X0083Y-00535D01*
X0057Y-00275D02*
Y-00205D01*
G54D28*
X03145Y-0105D02*
X0345D01*
X0313Y-01065D02*
X03145Y-0105D01*
X0313Y-0132D02*
Y-01065D01*
Y-0132D02*
X03404Y-01594D01*
X0346Y-016D02*
Y-01595D01*
X0346Y-01594D02*
X0346Y-01595D01*
X03404Y-01594D02*
X0346D01*
X04562Y-00929D02*
X04571Y-00939D01*
X0397Y-00929D02*
X04562D01*
X04571Y-0094D02*
Y-00939D01*
X04175Y-012D02*
Y-0099D01*
Y-012D02*
X04285Y-0131D01*
Y-01468D02*
Y-0131D01*
Y-01468D02*
X04476Y-0166D01*
X03465Y-00929D02*
X0397D01*
X0234Y-00964D02*
Y-0087D01*
X04132Y-00947D02*
X04175Y-0099D01*
X02945Y-00545D02*
X03335D01*
X0277Y-0072D02*
X02945Y-00545D01*
X04334Y-0028D02*
X04467Y-00412D01*
X03759Y-0028D02*
X04334D01*
X04467Y-00412D02*
X04489Y-00435D01*
X01755Y-0087D02*
X0233D01*
X01706Y-00918D02*
X01755Y-0087D01*
X01706Y-00985D02*
Y-00918D01*
X00401Y-0219D02*
X00581Y-0201D01*
X01295*
X0234Y-00964*
X03676Y-01595D02*
X03838D01*
X04013Y-0177*
X04476Y-0166D02*
X04586D01*
X04013Y-0177D02*
X04571D01*
G54D29*
X01806Y-00985D03*
X01706D03*
X01606D03*
X01506D03*
X01406D03*
X01306D03*
X01206D03*
X01106D03*
X01006D03*
X00906D03*
X00806D03*
X00706D03*
X00606D03*
X00506D03*
X00406D03*
X03525Y-02915D03*
X03625D03*
X03725D03*
X03825D03*
X03925D03*
X04025D03*
X04125D03*
X0109Y-00635D03*
X0119D03*
X02605Y-029D03*
X02705D03*
X0217D03*
X0227D03*
X01395Y-0241D03*
X01295D03*
X01195D03*
X02255Y-001D03*
X02355D03*
X02455D03*
X02555D03*
X01801Y-0219D03*
X01701D03*
X01601D03*
X01501D03*
X01401D03*
X01301D03*
X01201D03*
X01101D03*
X01001D03*
X00901D03*
X00801D03*
X00701D03*
X00601D03*
X00501D03*
X00401D03*
X0313Y-01065D03*
D03*
X01085Y-026D03*
X03335Y-00545D03*
X0366Y-0105D03*
X0277Y-0072D03*
G54D30*
X00306Y-00985D03*
X03425Y-02915D03*
X0099Y-00635D03*
X02505Y-029D03*
X0207D03*
X01095Y-0241D03*
X02155Y-001D03*
X00301Y-0219D03*
G54D31*
X03055Y-029D03*
X04576Y-00935D03*
Y-01295D03*
X04571Y-0166D03*
G54D32*
X02955Y-029D03*
G54D33*
X02983Y-00085D03*
G54D34*
X02786Y-00085D03*
G54D35*
X04576Y-01035D03*
Y-01395D03*
X04571Y-0176D03*
G54D36*
X018Y-00105D03*
X01015D03*
X0115D03*
X01935D03*
X0154D03*
X01675D03*
X0141D03*
X01275D03*
X03765Y-0079D03*
Y-00645D03*
X03759Y-0052D03*
Y-0039D03*
Y-0028D03*
X03764Y-00165D03*
G54D37*
X02085Y-0218D03*
X02505Y-01575D03*
X01865Y-01439D03*
X01345Y-0071D03*
X0242Y-00725D03*
X0211Y-00575D03*
X04285Y-0131D03*
X00574Y-00155D03*
X00375Y-00145D03*
X03125Y-00435D03*
X03565Y-02105D03*
X01388Y-02655D03*
X0125Y-026D03*
X00525Y-0308D03*
X00361Y-0259D03*
X00571Y-0057D03*
X0049D03*
X03563Y-01414D03*
X00195Y-0056D03*
X01776Y-02325D03*
X01685Y-0245D03*
X00416Y-02325D03*
G54D38*
X04489Y-00435D03*
G54D39*
X00125Y-00224D03*
X045Y-00214D03*
X04516Y-02805D03*
X00141Y-02815D03*
G54D40*
X00378Y-00603D03*
Y-00175D03*
X00574D03*
Y-00603D03*
X00481D03*
Y-00175D03*
X0346Y-01458D03*
X03563D03*
X03656D03*
X0346Y-0103D03*
X03563D03*
X03656D03*
Y-02008D03*
X03563D03*
X0346D03*
Y-0158D03*
X03563D03*
X03656D03*
G54D41*
X03455Y-0066D02*
Y-0028D01*
Y-0072D02*
Y-0066D01*
X03759Y-0028D02*
X03759D01*
X03455D02*
X03759D01*
X03455Y-0091D02*
Y-00715D01*
M02*