%FSTAX23Y23*%
%MOIN*%
%SFA1B1*%

%IPPOS*%
%ADD10C,0.007874*%
%ADD12C,0.005000*%
%ADD13C,0.010000*%
%LNbinbot_board-1*%
%LPD*%
G54D10*
X02813Y-00117D02*
D01*
X02815Y-00122*
X02818Y-00127*
X02821Y-00131*
X02825Y-00136*
X02828Y-0014*
X02832Y-00144*
X02837Y-00147*
X02841Y-0015*
X02846Y-00153*
X02851Y-00156*
X02856Y-00158*
X02861Y-0016*
X02866Y-00161*
X02872Y-00162*
X02877Y-00163*
X02883Y-00163*
X02888Y-00163*
X02894Y-00163*
X02899Y-00162*
X02904Y-00161*
X0291Y-00159*
X02915Y-00157*
X0292Y-00155*
X02925Y-00152*
X02929Y-00149*
X02934Y-00146*
X02938Y-00142*
X02942Y-00139*
X02945Y-00135*
X02949Y-0013*
X02951Y-00127*
Y-00042D02*
D01*
X02948Y-00038*
X02944Y-00033*
X02941Y-00029*
X02937Y-00026*
X02932Y-00022*
X02928Y-00019*
X02923Y-00016*
X02918Y-00013*
X02913Y-00011*
X02908Y-00009*
X02903Y-00008*
X02897Y-00007*
X02892Y-00006*
X02887Y-00006*
X02881Y-00006*
X02876Y-00006*
X0287Y-00007*
X02865Y-00008*
X02859Y-0001*
X02854Y-00012*
X02849Y-00014*
X02845Y-00017*
X0284Y-0002*
X02835Y-00023*
X02831Y-00026*
X02827Y-0003*
X02824Y-00034*
X0282Y-00039*
X02817Y-00043*
X02815Y-00048*
X02813Y-00052*
X02595Y-02181D02*
D01*
X02595Y-02181*
X02595Y-02181*
X02595Y-0218*
X02595Y-0218*
X02595Y-0218*
X02595Y-0218*
X02595Y-02179*
X02595Y-02179*
X02595Y-02179*
X02594Y-02179*
X02594Y-02178*
X02594Y-02178*
X02594Y-02178*
X02594Y-02178*
X02593Y-02178*
X02593Y-02178*
X02593Y-02178*
X02593Y-02177*
X02592Y-02177*
X02592Y-02177*
X02592Y-02177*
X02591Y-02177*
X02591*
X02591Y-02177*
X02591Y-02177*
X0259Y-02177*
X0259Y-02177*
X0259Y-02178*
X0259Y-02178*
X02589Y-02178*
X02589Y-02178*
X02589Y-02178*
X02589Y-02178*
X02588Y-02178*
X02588Y-02179*
X02588Y-02179*
X02588Y-02179*
X02588Y-02179*
X02588Y-0218*
X02588Y-0218*
X02588Y-0218*
X02587Y-0218*
X02587Y-02181*
X02587Y-02181*
X02587Y-02181*
X02587Y-02182*
X02587Y-02182*
X02587Y-02182*
X02588Y-02182*
X02588Y-02183*
X02588Y-02183*
X02588Y-02183*
X02588Y-02183*
X02588Y-02184*
X02588Y-02184*
X02588Y-02184*
X02589Y-02184*
X02589Y-02184*
X02589Y-02184*
X02589Y-02185*
X0259Y-02185*
X0259Y-02185*
X0259Y-02185*
X0259Y-02185*
X02591Y-02185*
X02591Y-02185*
X02591Y-02185*
X02591*
X02592Y-02185*
X02592Y-02185*
X02592Y-02185*
X02593Y-02185*
X02593Y-02185*
X02593Y-02185*
X02593Y-02185*
X02594Y-02184*
X02594Y-02184*
X02594Y-02184*
X02594Y-02184*
X02594Y-02184*
X02595Y-02184*
X02595Y-02183*
X02595Y-02183*
X02595Y-02183*
X02595Y-02183*
X02595Y-02182*
X02595Y-02182*
X02595Y-02182*
X02595Y-02182*
X02595Y-02181*
X00719Y-00573D02*
D01*
X00714Y-00576*
X0071Y-0058*
X00706Y-00583*
X00702Y-00587*
X00699Y-00592*
X00696Y-00596*
X00693Y-00601*
X0069Y-00606*
X00688Y-00611*
X00686Y-00616*
X00685Y-00621*
X00684Y-00627*
X00683Y-00632*
X00683Y-00637*
X00683Y-00643*
X00683Y-00648*
X00684Y-00654*
X00685Y-00659*
X00687Y-00665*
X00689Y-0067*
X00691Y-00675*
X00693Y-00679*
X00696Y-00684*
X007Y-00689*
X00703Y-00693*
X00707Y-00697*
X00711Y-007*
X00716Y-00704*
X0072Y-00707*
X00725Y-00709*
X00729Y-00711*
X00794D02*
D01*
X00799Y-00709*
X00804Y-00706*
X00808Y-00703*
X00813Y-00699*
X00817Y-00696*
X0082Y-00692*
X00824Y-00687*
X00827Y-00683*
X0083Y-00678*
X00832Y-00673*
X00835Y-00668*
X00836Y-00663*
X00838Y-00658*
X00839Y-00652*
X0084Y-00647*
X0084Y-00641*
X0084Y-00636*
X0084Y-0063*
X00839Y-00625*
X00838Y-0062*
X00836Y-00614*
X00834Y-00609*
X00832Y-00604*
X00829Y-00599*
X00826Y-00595*
X00823Y-0059*
X00819Y-00586*
X00815Y-00582*
X00811Y-00579*
X00807Y-00575*
X00804Y-00573*
X0369Y-01466D02*
D01*
X0369Y-01466*
X0369Y-01466*
X0369Y-01465*
X0369Y-01465*
X0369Y-01465*
X0369Y-01465*
X0369Y-01464*
X0369Y-01464*
X0369Y-01464*
X03689Y-01464*
X03689Y-01463*
X03689Y-01463*
X03689Y-01463*
X03689Y-01463*
X03688Y-01463*
X03688Y-01463*
X03688Y-01463*
X03688Y-01462*
X03687Y-01462*
X03687Y-01462*
X03687Y-01462*
X03686Y-01462*
X03686*
X03686Y-01462*
X03686Y-01462*
X03685Y-01462*
X03685Y-01462*
X03685Y-01463*
X03685Y-01463*
X03684Y-01463*
X03684Y-01463*
X03684Y-01463*
X03684Y-01463*
X03683Y-01463*
X03683Y-01464*
X03683Y-01464*
X03683Y-01464*
X03683Y-01464*
X03683Y-01465*
X03683Y-01465*
X03683Y-01465*
X03682Y-01465*
X03682Y-01466*
X03682Y-01466*
X03682Y-01466*
X03682Y-01467*
X03682Y-01467*
X03682Y-01467*
X03683Y-01467*
X03683Y-01468*
X03683Y-01468*
X03683Y-01468*
X03683Y-01468*
X03683Y-01469*
X03683Y-01469*
X03683Y-01469*
X03684Y-01469*
X03684Y-01469*
X03684Y-01469*
X03684Y-0147*
X03685Y-0147*
X03685Y-0147*
X03685Y-0147*
X03685Y-0147*
X03686Y-0147*
X03686Y-0147*
X03686Y-0147*
X03686*
X03687Y-0147*
X03687Y-0147*
X03687Y-0147*
X03688Y-0147*
X03688Y-0147*
X03688Y-0147*
X03688Y-0147*
X03689Y-01469*
X03689Y-01469*
X03689Y-01469*
X03689Y-01469*
X03689Y-01469*
X0369Y-01469*
X0369Y-01468*
X0369Y-01468*
X0369Y-01468*
X0369Y-01468*
X0369Y-01467*
X0369Y-01467*
X0369Y-01467*
X0369Y-01467*
X0369Y-01466*
Y-02016D02*
D01*
X0369Y-02016*
X0369Y-02016*
X0369Y-02015*
X0369Y-02015*
X0369Y-02015*
X0369Y-02015*
X0369Y-02014*
X0369Y-02014*
X0369Y-02014*
X03689Y-02014*
X03689Y-02013*
X03689Y-02013*
X03689Y-02013*
X03689Y-02013*
X03688Y-02013*
X03688Y-02013*
X03688Y-02013*
X03688Y-02012*
X03687Y-02012*
X03687Y-02012*
X03687Y-02012*
X03686Y-02012*
X03686*
X03686Y-02012*
X03686Y-02012*
X03685Y-02012*
X03685Y-02012*
X03685Y-02013*
X03685Y-02013*
X03684Y-02013*
X03684Y-02013*
X03684Y-02013*
X03684Y-02013*
X03683Y-02013*
X03683Y-02014*
X03683Y-02014*
X03683Y-02014*
X03683Y-02014*
X03683Y-02015*
X03683Y-02015*
X03683Y-02015*
X03682Y-02015*
X03682Y-02016*
X03682Y-02016*
X03682Y-02016*
X03682Y-02017*
X03682Y-02017*
X03682Y-02017*
X03683Y-02017*
X03683Y-02018*
X03683Y-02018*
X03683Y-02018*
X03683Y-02018*
X03683Y-02019*
X03683Y-02019*
X03683Y-02019*
X03684Y-02019*
X03684Y-02019*
X03684Y-02019*
X03684Y-0202*
X03685Y-0202*
X03685Y-0202*
X03685Y-0202*
X03685Y-0202*
X03686Y-0202*
X03686Y-0202*
X03686Y-0202*
X03686*
X03687Y-0202*
X03687Y-0202*
X03687Y-0202*
X03688Y-0202*
X03688Y-0202*
X03688Y-0202*
X03688Y-0202*
X03689Y-02019*
X03689Y-02019*
X03689Y-02019*
X03689Y-02019*
X03689Y-02019*
X0369Y-02019*
X0369Y-02018*
X0369Y-02018*
X0369Y-02018*
X0369Y-02018*
X0369Y-02017*
X0369Y-02017*
X0369Y-02017*
X0369Y-02017*
X0369Y-02016*
X00608Y-00611D02*
D01*
X00608Y-00611*
X00608Y-00611*
X00608Y-0061*
X00608Y-0061*
X00608Y-0061*
X00608Y-0061*
X00608Y-00609*
X00608Y-00609*
X00607Y-00609*
X00607Y-00609*
X00607Y-00608*
X00607Y-00608*
X00607Y-00608*
X00607Y-00608*
X00606Y-00608*
X00606Y-00608*
X00606Y-00608*
X00606Y-00607*
X00605Y-00607*
X00605Y-00607*
X00605Y-00607*
X00604Y-00607*
X00604*
X00604Y-00607*
X00604Y-00607*
X00603Y-00607*
X00603Y-00607*
X00603Y-00608*
X00603Y-00608*
X00602Y-00608*
X00602Y-00608*
X00602Y-00608*
X00602Y-00608*
X00601Y-00608*
X00601Y-00609*
X00601Y-00609*
X00601Y-00609*
X00601Y-00609*
X00601Y-0061*
X00601Y-0061*
X00601Y-0061*
X006Y-0061*
X006Y-00611*
X006Y-00611*
X006Y-00611*
X006Y-00612*
X006Y-00612*
X006Y-00612*
X00601Y-00612*
X00601Y-00613*
X00601Y-00613*
X00601Y-00613*
X00601Y-00613*
X00601Y-00614*
X00601Y-00614*
X00601Y-00614*
X00602Y-00614*
X00602Y-00614*
X00602Y-00614*
X00602Y-00615*
X00603Y-00615*
X00603Y-00615*
X00603Y-00615*
X00603Y-00615*
X00604Y-00615*
X00604Y-00615*
X00604Y-00615*
X00604*
X00605Y-00615*
X00605Y-00615*
X00605Y-00615*
X00606Y-00615*
X00606Y-00615*
X00606Y-00615*
X00606Y-00615*
X00607Y-00614*
X00607Y-00614*
X00607Y-00614*
X00607Y-00614*
X00607Y-00614*
X00607Y-00614*
X00608Y-00613*
X00608Y-00613*
X00608Y-00613*
X00608Y-00613*
X00608Y-00612*
X00608Y-00612*
X00608Y-00612*
X00608Y-00612*
X00608Y-00611*
X02146Y-0193D02*
X02197D01*
X03241Y-0121D02*
X03292D01*
X03241Y-0174D02*
X03292D01*
G54D12*
X02627Y-02148D02*
X02628Y-01769D01*
X02298Y-02149D02*
Y-01769D01*
X03722Y-01433D02*
X03723Y-01054D01*
X03393Y-01434D02*
Y-01054D01*
X03722Y-01983D02*
X03723Y-01604D01*
X03393Y-01984D02*
Y-01604D01*
X0064Y-00578D02*
X00641Y-00199D01*
X00311Y-00579D02*
Y-00199D01*
G54D13*
X03825Y-0173D02*
X03798D01*
X03785Y-01743*
X03798Y-01756*
X03825*
X03805*
Y-0173*
X03825Y-01769D02*
Y-01782D01*
Y-01775*
X03785*
Y-01769*
X03798Y-01808D02*
Y-01821D01*
X03805Y-01828*
X03825*
Y-01808*
X03818Y-01802*
X03811Y-01808*
Y-01828*
X03798Y-01841D02*
X03825D01*
X03811*
X03805Y-01848*
X03798Y-01854*
Y-01861*
X03825Y-0188D02*
X03798D01*
Y-01887*
X03805Y-01893*
X03825*
X03805*
X03798Y-019*
X03805Y-01907*
X03825*
X038Y-01065D02*
Y-01078D01*
Y-01071*
X0384*
Y-01065*
Y-01078*
Y-01097D02*
X03813D01*
Y-01117*
X0382Y-01124*
X0384*
X038Y-01163D02*
X0384D01*
Y-01143*
X03833Y-01137*
X0382*
X03813Y-01143*
Y-01163*
X0384Y-01176D02*
Y-01189D01*
Y-01183*
X03813*
Y-01176*
Y-01235D02*
Y-01215D01*
X0382Y-01209*
X03833*
X0384Y-01215*
Y-01235*
X03813Y-01255D02*
Y-01268D01*
X0382Y-01274*
X0384*
Y-01255*
X03833Y-01248*
X03826Y-01255*
Y-01274*
X03807Y-01294D02*
X03813D01*
Y-01288*
Y-01301*
Y-01294*
X03833*
X0384Y-01301*
Y-01327D02*
Y-0134D01*
X03833Y-01347*
X0382*
X03813Y-0134*
Y-01327*
X0382Y-0132*
X03833*
X0384Y-01327*
X03813Y-0136D02*
X0384D01*
X03826*
X0382Y-01366*
X03813Y-01373*
Y-01379*
X02561Y-01655D02*
Y-01694D01*
X02535*
X02502Y-01655D02*
X02515D01*
X02522Y-01661*
Y-01688*
X02515Y-01694*
X02502*
X02495Y-01688*
Y-01661*
X02502Y-01655*
X02456Y-01661D02*
X02463Y-01655D01*
X02476*
X02482Y-01661*
Y-01688*
X02476Y-01694*
X02463*
X02456Y-01688*
X02443Y-01655D02*
Y-01694D01*
Y-01681*
X02417Y-01655*
X02436Y-01675*
X02417Y-01694*
X02377Y-01655D02*
X02404D01*
Y-01694*
X02377*
X02404Y-01675D02*
X0239D01*
X02364Y-01694D02*
Y-01655D01*
X02345*
X02338Y-01661*
Y-01675*
X02345Y-01681*
X02364*
X02351D02*
X02338Y-01694D01*
X02231Y-02D02*
X02271D01*
Y-0198*
X02264Y-01974*
X02251*
X02244Y-0198*
Y-02*
Y-01987D02*
X02231Y-01974D01*
X02264Y-01961D02*
X02271Y-01954D01*
Y-01941*
X02264Y-01935*
X02258*
X02251Y-01941*
X02244Y-01935*
X02238*
X02231Y-01941*
Y-01954*
X02238Y-01961*
X02244*
X02251Y-01954*
X02258Y-01961*
X02264*
X02251Y-01954D02*
Y-01941D01*
X03326Y-0128D02*
X03366D01*
Y-0126*
X03359Y-01254*
X03346*
X03339Y-0126*
Y-0128*
Y-01267D02*
X03326Y-01254D01*
X03333Y-01241D02*
X03326Y-01234D01*
Y-01221*
X03333Y-01215*
X03359*
X03366Y-01221*
Y-01234*
X03359Y-01241*
X03353*
X03346Y-01234*
Y-01215*
X03326Y-0181D02*
X03366D01*
Y-0179*
X03359Y-01784*
X03346*
X03339Y-0179*
Y-0181*
Y-01797D02*
X03326Y-01784D01*
Y-01771D02*
Y-01758D01*
Y-01764*
X03366*
X03359Y-01771*
Y-01738D02*
X03366Y-01731D01*
Y-01718*
X03359Y-01712*
X03333*
X03326Y-01718*
Y-01731*
X03333Y-01738*
X03359*
M02*