%FSTAX23Y23*%
%MOIN*%
%SFA1B1*%

%IPPOS*%
%AMD19*
4,1,8,0.025600,0.015600,-0.025600,0.015600,-0.032500,0.008700,-0.032500,-0.008700,-0.025600,-0.015600,0.025600,-0.015600,0.032500,-0.008700,0.032500,0.008700,0.025600,0.015600,0.0*
1,1,0.013811,0.025600,0.008700*
1,1,0.013811,-0.025600,0.008700*
1,1,0.013811,-0.025600,-0.008700*
1,1,0.013811,0.025600,-0.008700*
%
%ADD17R,0.067055X0.078866*%
%ADD18R,0.078866X0.067055*%
G04~CAMADD=19~8~0.0~0.0~650.9~312.3~69.1~0.0~15~0.0~0.0~0.0~0.0~0~0.0~0.0~0.0~0.0~0~0.0~0.0~0.0~0.0~650.9~312.3*
%ADD19D19*%
%ADD20R,0.061149X0.061149*%
%ADD21C,0.061149*%
%ADD22C,0.067055*%
%ADD23R,0.067055X0.067055*%
%ADD24R,0.063039X0.063039*%
%ADD25C,0.063039*%
%ADD26C,0.135952*%
%ADD27C,0.102488*%
%ADD28R,0.061149X0.061149*%
%ADD29R,0.078866X0.078866*%
%ADD30C,0.078866*%
%ADD31C,0.058000*%
%ADD32C,0.126110*%
%ADD33C,0.086740*%
%ADD34C,0.165480*%
%LNbinbot_board-1*%
%LPD*%
G54D17*
X00696Y-02347D03*
Y-02442D03*
X00831Y-00353D03*
Y-00456D03*
X01561Y-02347D03*
Y-02442D03*
X01731Y-02347D03*
Y-02442D03*
X00516D03*
Y-02347D03*
X00346Y-02442D03*
Y-02347D03*
X00201Y-00522D03*
Y-00427D03*
G54D18*
X00938Y-00555D03*
X01033D03*
G54D19*
X00946Y-00362D03*
Y-004D03*
Y-00437D03*
X01037D03*
Y-004D03*
Y-00362D03*
G54D20*
X02983Y-00085D03*
G54D21*
X02786Y-00085D03*
X00761Y-00738D03*
G54D22*
X01395Y-0241D03*
X01295D03*
X01195D03*
X02255Y-0008D03*
X02355D03*
X02455D03*
X02555D03*
X01806Y-00275D03*
X01801Y-0219D03*
X01701D03*
X01601D03*
X01501D03*
X01401D03*
X01301D03*
X01201D03*
X01101D03*
X01001D03*
X00901D03*
X00801D03*
X00701D03*
X00601D03*
X00501D03*
X00401D03*
X00406Y-00985D03*
X00506D03*
X00606D03*
X00706D03*
X00806D03*
X00906D03*
X01006D03*
X01106D03*
X01206D03*
X01306D03*
X01406D03*
X01506D03*
X01606D03*
X01706D03*
X01806D03*
X01085Y-026D03*
X02561Y-01769D03*
X02865Y-01145D03*
X03335Y-00545D03*
X0366Y-0105D03*
X02795Y-00845D03*
X03347Y-0084D03*
X0277Y-0072D03*
G54D23*
X01095Y-0241D03*
X02155Y-0008D03*
X00301Y-0219D03*
X00306Y-00985D03*
G54D24*
X01706Y-00225D03*
X02676Y-025D03*
G54D25*
X01806Y-00375D03*
X01706Y-00425D03*
Y-00325D03*
X01806Y-00475D03*
X01706Y-00525D03*
X01806Y-00575D03*
X02776Y-0265D03*
X02676Y-027D03*
Y-026D03*
X02776Y-0275D03*
Y-0255D03*
X02676Y-028D03*
X02776Y-0285D03*
G54D26*
X01456Y-00175D03*
Y-00625D03*
X02426Y-0245D03*
Y-029D03*
G54D27*
X01339Y-00094D03*
Y-00705D03*
X02309Y-02369D03*
Y-0298D03*
G54D28*
X00761Y-00541D03*
G54D29*
X04576Y-01035D03*
Y-01395D03*
X04571Y-0176D03*
G54D30*
X04576Y-00935D03*
Y-01295D03*
X04571Y-0166D03*
G54D31*
X04285Y-0131D03*
X00574Y-00165D03*
X00375Y-00145D03*
X02095Y-0051D03*
X03125Y-00435D03*
X03565Y-02105D03*
X02785Y-0233D03*
X02965Y-01605D03*
X01388Y-02655D03*
X0125Y-026D03*
X00525Y-0308D03*
X00361Y-0259D03*
X00571Y-0057D03*
X0049D03*
X03563Y-01414D03*
X02468Y-02134D03*
X0242Y-007D03*
X00195Y-0056D03*
X0104Y-0047D03*
X01776Y-02325D03*
X01685Y-0245D03*
X00416Y-02325D03*
X00731Y-0042D03*
G54D32*
X04489Y-00435D03*
G54D33*
X03765Y-0079D03*
Y-00645D03*
X03759Y-0052D03*
Y-0039D03*
Y-0028D03*
X03764Y-00165D03*
G54D34*
X00125Y-00224D03*
X045Y-00214D03*
X04516Y-02805D03*
X00141Y-02815D03*
M02*