%FSTAX23Y23*%
%MOIN*%
%SFA1B1*%

%IPPOS*%
%AMD16*
4,1,8,0.025600,0.011600,-0.025600,0.011600,-0.028500,0.008700,-0.028500,-0.008700,-0.025600,-0.011600,0.025600,-0.011600,0.028500,-0.008700,0.028500,0.008700,0.025600,0.011600,0.0*
1,1,0.005811,0.025600,0.008700*
1,1,0.005811,-0.025600,0.008700*
1,1,0.005811,-0.025600,-0.008700*
1,1,0.005811,0.025600,-0.008700*
%
%ADD13C,0.010000*%
%ADD14R,0.059055X0.070866*%
%ADD15R,0.070866X0.059055*%
G04~CAMADD=16~8~0.0~0.0~570.9~232.3~29.1~0.0~15~0.0~0.0~0.0~0.0~0~0.0~0.0~0.0~0.0~0~0.0~0.0~0.0~0.0~570.9~232.3*
%ADD16D16*%
%ADD35C,0.031496*%
%ADD36C,0.019685*%
%ADD37C,0.039370*%
%ADD38C,0.011811*%
%ADD39C,0.078740*%
%ADD40R,0.053150X0.053150*%
%ADD41C,0.053150*%
%ADD42C,0.059055*%
%ADD43R,0.059055X0.059055*%
%ADD44R,0.055039X0.055039*%
%ADD45C,0.055039*%
%ADD46C,0.127952*%
%ADD47C,0.094488*%
%ADD48R,0.053150X0.053150*%
%ADD49R,0.070866X0.070866*%
%ADD50C,0.070866*%
%ADD51C,0.050000*%
%ADD52C,0.118110*%
%ADD53C,0.078740*%
%ADD54C,0.157480*%
%LNbinbot_board-1*%
%LPD*%
G54D13*
X02729Y-02792D02*
X02794D01*
X0431Y-01295D02*
X04576D01*
X03623Y-0131D02*
X04285D01*
X04295D02*
X0431Y-01295D01*
X04285Y-0131D02*
X04295D01*
X03603Y-0133D02*
X03623Y-0131D01*
X0256Y-0016D02*
Y-00145D01*
Y-0008*
X00235Y-0252D02*
X00809D01*
X0018Y-02465D02*
Y-0204D01*
Y-02465D02*
X00235Y-0252D01*
X02755Y-0004D02*
X028Y-00085D01*
X02725Y-0004D02*
X02755D01*
X02225D02*
X02725D01*
X0218Y-00085D02*
X02225Y-0004D01*
X02155Y-00085D02*
X0218D01*
X02794Y-02792D02*
X0283Y-02756D01*
Y-02618*
X02769Y-02557D02*
X0283Y-02618D01*
X03565Y-02125D02*
Y-02105D01*
X0002Y-00685D02*
X0016Y-00825D01*
X0002Y-00685D02*
Y-0019D01*
X00178Y-00031*
X02149*
X00147Y-00642D02*
X0034Y-00835D01*
X00147Y-00642D02*
Y-00389D01*
X0034Y-00835D02*
X01566D01*
X01711Y-0098*
X01135Y-00631D02*
Y-00395D01*
X0109Y-0035D02*
X01135Y-00395D01*
X01049Y-0035D02*
X0109D01*
X02095Y-0051D02*
X0215D01*
X0234Y-007*
X03115Y-00445D02*
X03135Y-00425D01*
X02975Y-00693D02*
X0298Y-00687D01*
X0332Y-0057D02*
X03335Y-00555D01*
X03317Y-00687D02*
X0332Y-00685D01*
X03335Y-00555D02*
Y-00545D01*
X01185Y-02405D02*
X01224Y-02365D01*
X01549*
X01388Y-02655D02*
X01395Y-02648D01*
Y-0241*
X0125Y-026D02*
X01285Y-02565D01*
Y-0241*
X00361Y-02906D02*
X0053Y-03075D01*
X00361Y-02906D02*
Y-0259D01*
X0016Y-0103D02*
Y-00825D01*
X00571Y-00659D02*
Y-0057D01*
X00565Y-00665D02*
X00571Y-00659D01*
X0049Y-0057D02*
Y-00559D01*
X00466Y-00536D02*
Y-0047D01*
Y-00536D02*
X0049Y-00559D01*
X00321Y-00659D02*
Y-0043D01*
X00327Y-00665D02*
X00565D01*
X00321Y-00659D02*
X00327Y-00665D01*
X00311Y-0069D02*
X01031D01*
X00186Y-00565D02*
X00311Y-0069D01*
X01031D02*
X01091Y-0063D01*
X03563Y-0137D02*
X03564Y-01369D01*
X03563Y-01414D02*
Y-0137D01*
X03564Y-01369D02*
X03603Y-0133D01*
X02468Y-02372D02*
Y-02134D01*
X03755Y-008D02*
X03765Y-0079D01*
X03724Y-00425D02*
X03759Y-0039D01*
X03135Y-00425D02*
X03724D01*
X0234Y-007D02*
X0242D01*
X02155Y-00085D02*
Y-00037D01*
X02149Y-00031D02*
X02155Y-00037D01*
X00706Y-00993D02*
Y-00985D01*
X00941Y-0115D02*
X01106Y-00985D01*
X0016Y-0103D02*
X0028Y-0115D01*
X00941*
X0018Y-0204D02*
X00654Y-01565D01*
X00826*
X01772Y-02757D02*
X02016D01*
X01515Y-025D02*
X01772Y-02757D01*
X01515Y-025D02*
Y-024D01*
X01706Y-00525D02*
D01*
X0104Y-0047D02*
X01046D01*
X01048Y-00351D02*
X01049Y-0035D01*
X01037Y-00362D02*
X01046Y-00353D01*
X01048Y-00351*
X01028Y-00738D02*
X01135Y-00631D01*
X02681Y-02745D02*
X02729Y-02792D01*
X02456Y-02745D02*
X02681D01*
X02016Y-02757D02*
X02029Y-02745D01*
X01685Y-0245D02*
X01741D01*
X01577D02*
X01685D01*
X01597Y-02297D02*
X01685Y-02385D01*
Y-02454D02*
Y-02385D01*
X01031Y-02297D02*
X01597D01*
X00809Y-0252D02*
X01031Y-02297D01*
X00826Y-01565D02*
X01406Y-00985D01*
X01476Y-00465D02*
Y-00455D01*
X01339Y-00708D02*
Y-00705D01*
X02309Y-0298D02*
X02336D01*
X01515Y-024D02*
X01559Y-02355D01*
X01843Y-00576D02*
X01854Y-00587D01*
X01971Y-00705*
X01806Y-00575D02*
X01808Y-00576D01*
X01843*
X00946Y-0054D02*
Y-00437D01*
X00272Y-02439D02*
Y-02239D01*
X00336Y-02445D02*
X00346Y-02434D01*
X00278Y-02445D02*
X00336D01*
X00272Y-02439D02*
X00278Y-02445D01*
X0051Y-02275D02*
Y-02198D01*
Y-02348D02*
X00516Y-02355D01*
X00514Y-02275D02*
D01*
X00501Y-0219D02*
X0051Y-02198D01*
X00514Y-02275D02*
X01951D01*
X0051Y-02348D02*
Y-02275D01*
X02468Y-02372D02*
X02654Y-02557D01*
X02769*
X02776Y-0255*
X01971Y-0096D02*
Y-00705D01*
X01776Y-01155D02*
X01971Y-0096D01*
X01481Y-01155D02*
X01776D01*
X00641Y-02044D02*
Y-01995D01*
Y-0214D02*
Y-02044D01*
Y-01995D02*
X01481Y-01155D01*
X00766Y-02494D02*
Y-02385D01*
X0076Y-025D02*
X00766Y-02494D01*
X00251Y-025D02*
X0076D01*
X00221Y-0247D02*
X00251Y-025D01*
X00735Y-02353D02*
X00766Y-02385D01*
X00708Y-02341D02*
Y-02327D01*
Y-02341D02*
X00721Y-02353D01*
X00735*
X00221Y-0247D02*
Y-02145D01*
X00322Y-02044*
X00641*
X00346Y-02434D02*
X00357Y-02445D01*
X00516D02*
X00702D01*
X00357D02*
X00516D01*
X00272Y-02219D02*
X00301Y-0219D01*
X00272Y-02239D02*
Y-02219D01*
X01656Y-0055D02*
X01856Y-0075D01*
X01656Y-0055D02*
Y-0041D01*
X01691Y-00375*
X01825*
X00761Y-00738D02*
X01028D01*
X01091Y-0063D02*
Y-00405D01*
X01037Y-004D02*
X01085D01*
X01091Y-00405*
X00946Y-00362D02*
X01037D01*
X01047*
X00127Y-0069D02*
X00316Y-0088D01*
X01441D02*
X01456Y-00895D01*
X00316Y-0088D02*
X01441D01*
X00127Y-00379D02*
X00166Y-0034D01*
X00651D02*
X00731Y-0042D01*
X00166Y-0034D02*
X00651D01*
X00161Y-00375D02*
X00226D01*
X00371D02*
X00466Y-0047D01*
X00303Y-00375D02*
X00371D01*
X00127Y-0069D02*
Y-00379D01*
X00147Y-00389D02*
X00161Y-00375D01*
X00226D02*
X00303D01*
X00185Y-00425D02*
X00315D01*
X00321Y-0043*
X04576Y-01295D02*
X04607D01*
X00641Y-0214D02*
X007Y-02198D01*
X01456Y-01007D02*
X01548Y-011D01*
X01456Y-01007D02*
Y-00895D01*
X01761Y-011D02*
X01856Y-01005D01*
Y-0075*
X01548Y-011D02*
X01761D01*
X01003Y-0051D02*
X01026Y-00533D01*
X00951Y-00405D02*
X00985D01*
X00991Y-005D02*
Y-0041D01*
X01026Y-00535D02*
Y-00533D01*
X00985Y-00405D02*
X00991Y-0041D01*
Y-005D02*
X01001Y-0051D01*
X01003*
X00186Y-00565D02*
Y-00505D01*
X01616Y-01005D02*
Y-00998D01*
X01594Y-00975D02*
X01616Y-00998D01*
X01587Y-00975D02*
X01594D01*
X00371Y-02325D02*
X00406D01*
X00346Y-02349D02*
X00371Y-02325D01*
X00346Y-02355D02*
Y-02349D01*
X00616Y-0219D02*
Y-02185D01*
X02029Y-02745D02*
X02456D01*
X01559Y-02355D02*
X01561D01*
Y-02434D02*
X01577Y-0245D01*
X01951Y-02275D02*
X02151Y-02475D01*
X00831Y-00445D02*
Y-00444D01*
X00807Y-0047D02*
X00831Y-00445D01*
X00466Y-0047D02*
X00807D01*
X00746Y-0054D02*
X00942D01*
X008Y-00475D02*
X00807Y-00483D01*
X02151Y-02475D02*
X02276Y-026D01*
X02676*
X00856Y-00445D02*
X00901Y-004D01*
X01054Y-00437D02*
X0106Y-00444D01*
X00832Y-0036D02*
X00947D01*
X00856Y-00453D02*
Y-00445D01*
X00831Y-0036D02*
X00832Y-0036D01*
X00831Y-00365D02*
Y-0036D01*
X00807Y-00483D02*
X00829Y-00461D01*
Y-00447*
X01037Y-00437D02*
X01054D01*
X00946Y-004D02*
X00951Y-00405D01*
X00901Y-004D02*
X00946D01*
X0106Y-00446D02*
Y-00444D01*
G54D14*
X00696Y-02347D03*
Y-02442D03*
X00831Y-00353D03*
Y-00456D03*
X01561Y-02347D03*
Y-02442D03*
X01731Y-02347D03*
Y-02442D03*
X00516D03*
Y-02347D03*
X00346Y-02442D03*
Y-02347D03*
X00201Y-00522D03*
Y-00427D03*
G54D15*
X00938Y-00555D03*
X01033D03*
G54D16*
X00946Y-00362D03*
Y-004D03*
Y-00437D03*
X01037D03*
Y-004D03*
Y-00362D03*
G54D35*
X04571Y-02153D02*
Y-0176D01*
X0377Y-02955D02*
X04571Y-02153D01*
X02735Y-02955D02*
X0377D01*
X02676Y-02896D02*
X02735Y-02955D01*
X02676Y-02896D02*
Y-028D01*
X0287Y-00775D02*
Y-0027D01*
X02765Y-00165D02*
X0287Y-0027D01*
X02965Y-01599D02*
X02975Y-01589D01*
Y-00693*
X02965Y-01605D02*
Y-01599D01*
X0061Y-00151D02*
X0063D01*
X0292Y-02376D02*
X02936Y-0236D01*
X0298Y-00687D02*
X03317D01*
Y-00573D02*
X0332Y-0057D01*
X03317Y-00687D02*
Y-00573D01*
X03744Y-00535D02*
X03759Y-0052D01*
X03717Y-00535D02*
X03723Y-00529D01*
X03738D02*
X03744Y-00535D01*
X03335Y-00545D02*
X0334D01*
X0335Y-00535*
X03723Y-00529D02*
X03738D01*
X04558Y-01046D02*
X04561Y-0105D01*
X0366D02*
X03663Y-01046D01*
X02801Y-02843D02*
X02881D01*
X0292Y-02805*
X02765Y-00715D02*
X0277Y-0072D01*
G54D36*
X0288Y-0236D02*
X02936D01*
X00375Y-00213D02*
X00413Y-00251D01*
X00375Y-00213D02*
Y-00145D01*
X00413Y-00276D02*
Y-00251D01*
X02785Y-0233D02*
X0285D01*
X0288Y-0236*
X02975Y-01677D02*
Y-01605D01*
X00413Y-00276D02*
X00436Y-003D01*
X00992*
X01047Y-00355*
X02676Y-01976D02*
X02975Y-01677D01*
X02676Y-025D02*
Y-01976D01*
X04561Y-0105D02*
X04576Y-01035D01*
X02776Y-0285D02*
X02783Y-02843D01*
X02801*
X01051Y-00355D02*
X01056Y-0036D01*
G54D37*
X02561Y-01769D02*
Y-01635D01*
X02865Y-01331*
X01655Y-00155D02*
X0166Y-0015D01*
X01525Y-0028D02*
X0165Y-00155D01*
X01655*
X0166Y-0015D02*
X0256D01*
X02565D02*
X02695D01*
X01706Y-00225D02*
X01726Y-00205D01*
X0202D02*
X0253Y-00715D01*
X01726Y-00205D02*
X0202D01*
X02795Y-00845D02*
X02865Y-00915D01*
Y-01145D02*
Y-00915D01*
Y-01331D02*
Y-01145D01*
X01558Y-00546D02*
X01581Y-00569D01*
X01594Y-00702D02*
Y-00582D01*
X01558Y-00546D02*
X01594Y-00582D01*
X01325Y-00465D02*
X01476D01*
X0118Y-0032D02*
X01325Y-00465D01*
X01476Y-00455D02*
X01706Y-00225D01*
X01115Y-0032D02*
X0118D01*
X02936Y-0236D02*
X03171Y-02125D01*
X03572*
X03876D02*
X04341Y-0166D01*
X03565Y-02125D02*
X03876D01*
X0105Y-00085D02*
X01245Y-0028D01*
X00435Y-00085D02*
X0105D01*
X01245Y-0028D02*
X01525D01*
X00375Y-00145D02*
X00435Y-00085D01*
X00576Y-00162D02*
X00579D01*
X00591Y-00151*
X0061*
X00634Y-00155D02*
X0073D01*
X0063Y-00151D02*
X00634Y-00155D01*
X00826D02*
X0095D01*
X01115Y-0032*
X0335Y-00535D02*
X03717D01*
X01806Y-00985D02*
Y-00915D01*
X03663Y-01046D02*
X04558D01*
X03345Y-0084D02*
X03347D01*
X03387Y-008D02*
X03744D01*
X03746Y-00797*
X03752*
X03347Y-0084D02*
X03387Y-008D01*
X03752Y-00797D02*
X03755Y-008D01*
X01594Y-00702D02*
X01806Y-00915D01*
X0073Y-00155D02*
X00826D01*
X0292Y-02805D02*
Y-02376D01*
X0253Y-00715D02*
X02765D01*
X01476Y-00465D02*
X01514Y-00502D01*
X01558Y-00546*
X04341Y-0166D02*
X04571D01*
G54D38*
X0187Y-00525D02*
X0212Y-00775D01*
X0287*
X01706Y-00525D02*
X0187D01*
G54D39*
X02736Y-00165D02*
X03755D01*
G54D40*
X02983Y-00085D03*
G54D41*
X02786Y-00085D03*
X00761Y-00738D03*
G54D42*
X01395Y-0241D03*
X01295D03*
X01195D03*
X02255Y-0008D03*
X02355D03*
X02455D03*
X02555D03*
X01806Y-00275D03*
X01801Y-0219D03*
X01701D03*
X01601D03*
X01501D03*
X01401D03*
X01301D03*
X01201D03*
X01101D03*
X01001D03*
X00901D03*
X00801D03*
X00701D03*
X00601D03*
X00501D03*
X00401D03*
X00406Y-00985D03*
X00506D03*
X00606D03*
X00706D03*
X00806D03*
X00906D03*
X01006D03*
X01106D03*
X01206D03*
X01306D03*
X01406D03*
X01506D03*
X01606D03*
X01706D03*
X01806D03*
X01085Y-026D03*
X02561Y-01769D03*
X02865Y-01145D03*
X03335Y-00545D03*
X0366Y-0105D03*
X02795Y-00845D03*
X03347Y-0084D03*
X0277Y-0072D03*
G54D43*
X01095Y-0241D03*
X02155Y-0008D03*
X00301Y-0219D03*
X00306Y-00985D03*
G54D44*
X01706Y-00225D03*
X02676Y-025D03*
G54D45*
X01806Y-00375D03*
X01706Y-00425D03*
Y-00325D03*
X01806Y-00475D03*
X01706Y-00525D03*
X01806Y-00575D03*
X02776Y-0265D03*
X02676Y-027D03*
Y-026D03*
X02776Y-0275D03*
Y-0255D03*
X02676Y-028D03*
X02776Y-0285D03*
G54D46*
X01456Y-00175D03*
Y-00625D03*
X02426Y-0245D03*
Y-029D03*
G54D47*
X01339Y-00094D03*
Y-00705D03*
X02309Y-02369D03*
Y-0298D03*
G54D48*
X00761Y-00541D03*
G54D49*
X04576Y-01035D03*
Y-01395D03*
X04571Y-0176D03*
G54D50*
X04576Y-00935D03*
Y-01295D03*
X04571Y-0166D03*
G54D51*
X04285Y-0131D03*
X00574Y-00165D03*
X00375Y-00145D03*
X02095Y-0051D03*
X03125Y-00435D03*
X03565Y-02105D03*
X02785Y-0233D03*
X02965Y-01605D03*
X01388Y-02655D03*
X0125Y-026D03*
X00525Y-0308D03*
X00361Y-0259D03*
X00571Y-0057D03*
X0049D03*
X03563Y-01414D03*
X02468Y-02134D03*
X0242Y-007D03*
X00195Y-0056D03*
X0104Y-0047D03*
X01776Y-02325D03*
X01685Y-0245D03*
X00416Y-02325D03*
X00731Y-0042D03*
G54D52*
X04489Y-00435D03*
G54D53*
X03765Y-0079D03*
Y-00645D03*
X03759Y-0052D03*
Y-0039D03*
Y-0028D03*
X03764Y-00165D03*
G54D54*
X00125Y-00224D03*
X045Y-00214D03*
X04516Y-02805D03*
X00141Y-02815D03*
M02*