%FSTAX23Y23*%
%MOIN*%
%SFA1B1*%

%IPPOS*%
%ADD13C,0.010000*%
%ADD14R,0.059055X0.070866*%
%ADD35C,0.031496*%
%ADD36C,0.019685*%
%ADD37C,0.039370*%
%ADD39C,0.078740*%
%ADD40R,0.053150X0.053150*%
%ADD41C,0.053150*%
%ADD42C,0.059055*%
%ADD43R,0.059055X0.059055*%
%ADD44R,0.055039X0.055039*%
%ADD45C,0.055039*%
%ADD46C,0.127952*%
%ADD47C,0.094488*%
%ADD48R,0.053150X0.053150*%
%ADD49R,0.070866X0.070866*%
%ADD50C,0.070866*%
%ADD51C,0.050000*%
%ADD52C,0.118110*%
%ADD53C,0.078740*%
%ADD54C,0.157480*%
%ADD55R,0.040551X0.078740*%
%LNbinbot_board-1*%
%LPD*%
G54D13*
X00275Y-02615D02*
X00295Y-02635D01*
X01049*
X00135Y-0165D02*
X0057Y-01215D01*
X00135Y-02525D02*
X00215Y-02605D01*
X00135Y-02525D02*
Y-0165D01*
X01049Y-02635D02*
X01084Y-026D01*
X01085*
X0021Y-0255D02*
X00275Y-02615D01*
X0021Y-0255D02*
Y-01885D01*
X01006Y-01088*
Y-00985*
X0162Y-00496D02*
X01706Y-0041D01*
X0162Y-0062D02*
Y-00496D01*
X0145Y-0079D02*
X0162Y-0062D01*
X0136Y-0079D02*
X0145D01*
X01206Y-00943D02*
X0136Y-0079D01*
X01206Y-00985D02*
Y-00943D01*
X02983Y-00243D02*
X03Y-0026D01*
X02983Y-00243D02*
Y-00085D01*
X02284Y-01784D02*
Y-0167D01*
X0235Y-01605D02*
X02965D01*
X02284Y-0167D02*
X0235Y-01605D01*
X03491Y-00975D02*
X0351Y-00993D01*
X01501Y-02178D02*
X02705Y-00975D01*
X03491*
X0351Y-01096D02*
Y-00993D01*
X03144Y-01511D02*
X03266Y-01634D01*
X0397Y-00942D02*
Y-00929D01*
X0001Y-0017D02*
X00148Y-00031D01*
X0001Y-00355D02*
Y-0017D01*
X00148Y-00031D02*
X02201D01*
X0001Y-00355D02*
X00207Y-00552D01*
X01809Y-00377D02*
Y-00374D01*
Y-00377D02*
X01941Y-0051D01*
X02095*
X02427Y-00692D02*
X02685Y-00435D01*
X03125*
X04455Y-00425D02*
X04479D01*
X04489Y-00435*
X03562Y-02015D02*
X03565Y-02017D01*
Y-02105D02*
Y-02017D01*
X03562Y-02015D02*
X03568Y-02009D01*
X02647Y-02197D02*
Y-02147D01*
X02284Y-01784D02*
X02647Y-02147D01*
X01771Y-0233D02*
X01776Y-02325D01*
X0113Y-0233D02*
X01771D01*
X01095Y-02365D02*
X0113Y-0233D01*
X01095Y-0241D02*
Y-02365D01*
X01295Y-02655D02*
X01405D01*
X0125Y-0262D02*
Y-0261D01*
X01205Y-02665D02*
X0125Y-0262D01*
X00275Y-02665D02*
X01205D01*
X00215Y-02605D02*
X00275Y-02665D01*
X0057Y-01215D02*
Y-0121D01*
X00773Y-01006*
X00806*
X0027Y-027D02*
X0125D01*
X00085Y-02515D02*
Y-01651D01*
Y-02515D02*
X0027Y-027D01*
X00085Y-01651D02*
X00706Y-01029D01*
Y-00985*
X0125Y-027D02*
X01295Y-02655D01*
X01039Y-02532D02*
X02385D01*
X00802Y-02295D02*
X01039Y-02532D01*
X00486Y-02295D02*
X00802D01*
X03255Y-01165D02*
X03276D01*
X03321Y-0112*
X03255Y-01265D02*
X0357D01*
X03666Y-0143D02*
Y-01361D01*
X0357Y-01265D02*
X03666Y-01361D01*
X03321Y-0112D02*
X03486D01*
X0351Y-01096*
X02561Y-0219D02*
Y-02124D01*
X02552Y-02114D02*
Y-02097D01*
X0232Y-01865D02*
X02552Y-02097D01*
Y-02114D02*
X02561Y-02124D01*
X02161Y-01865D02*
X0232D01*
X0242Y-007D02*
X02427Y-00692D01*
X02445Y-00075D02*
X02455Y-00085D01*
X02201Y-00031D02*
X02255Y-00085D01*
X02455Y-0028D02*
Y-00085D01*
X02355D02*
X02366D01*
X01776Y-02325D02*
X01811Y-0229D01*
X02555*
X02647Y-02197*
X01804Y-00572D02*
X01806Y-00575D01*
X01501Y-0219D02*
Y-02178D01*
X01601Y-0219D02*
Y-02143D01*
X02233Y-01511D02*
X03144D01*
X01601Y-02143D02*
X02233Y-01511D01*
X04577Y-00935D02*
X04596Y-00915D01*
X04576Y-00935D02*
X04577D01*
X00701Y-0098D02*
X00716Y-00965D01*
X00906Y-00985D02*
Y-00915D01*
X01496Y-00325*
X00985Y-0094D02*
X01024D01*
X00956Y-00968D02*
X00985Y-0094D01*
X01024D02*
X01056Y-00972D01*
X00956Y-01013D02*
Y-00968D01*
X00856Y-00836D02*
X0104Y-00653D01*
X00856Y-01006D02*
Y-00836D01*
Y-01006D02*
X0089Y-0104D01*
X0093*
X00956Y-01013*
X01056Y-00972D02*
X01127D01*
X0104Y-00653D02*
Y-0047D01*
X00601Y-0219D02*
Y-02146D01*
X00608Y-0214*
X00633Y-02115*
X00802Y-02295D02*
Y-0219D01*
X00801Y-0219D02*
X00802Y-0219D01*
X00806Y-00989D02*
Y-00985D01*
X01685Y-0245D02*
Y-0244D01*
X02036Y-0208D02*
X02164Y-01952D01*
X01731Y-0208D02*
X02036D01*
X01656Y-02155D02*
X01731Y-0208D01*
X01411Y-02115D02*
X01451Y-02155D01*
Y-0223D02*
X01476Y-02255D01*
X01451Y-0223D02*
Y-02155D01*
X00633Y-02115D02*
X01411D01*
X01476Y-02255D02*
X01616D01*
X01656Y-02215D02*
Y-02155D01*
X01616Y-02255D02*
X01656Y-02215D01*
X01701Y-0219D02*
X01707Y-02195D01*
X02171Y-01983D02*
Y-0197D01*
X04641Y-0146D02*
Y-03035D01*
X04576Y-01395D02*
X04641Y-0146D01*
X03266Y-01263D02*
Y-0125D01*
Y-01693D02*
Y-01634D01*
Y-01747D02*
Y-01693D01*
X03666Y-01985D02*
Y-01845D01*
X03266Y-01793D02*
Y-0178D01*
X03291Y-01818D02*
X0364D01*
X03266Y-01793D02*
X03291Y-01818D01*
X03571Y-01595D02*
Y-01575D01*
X0364Y-01818D02*
X03641Y-0182D01*
X03666Y-01845*
X01822Y-00482D02*
Y-0047D01*
X00408Y-02258D02*
X00611D01*
X00361Y-0259D02*
Y-02305D01*
X00408Y-02258*
X00651Y-02165D02*
X00682Y-02135D01*
X00651Y-02217D02*
Y-02165D01*
X00611Y-02258D02*
X00651Y-02217D01*
X00682Y-02135D02*
X00818D01*
X00851Y-02167*
X00857Y-02235D02*
X01356D01*
X01401Y-0219*
X00851Y-02229D02*
Y-02167D01*
Y-02229D02*
X00857Y-02235D01*
X01496Y-00325D02*
X01726D01*
X00521Y-0309D02*
X04586D01*
X04641Y-03035*
X00456Y-02325D02*
X00486Y-02295D01*
X00416Y-02325D02*
X00456D01*
X00733Y-00495D02*
X00744Y-00505D01*
Y-00537D02*
Y-00505D01*
Y-00537D02*
X00746Y-0054D01*
X00731Y-00493D02*
X00733Y-00495D01*
X00731Y-00486D02*
Y-0042D01*
Y-00493D02*
Y-00486D01*
X02426Y-02573D02*
X0246D01*
X02385Y-02532D02*
X02426Y-02573D01*
X0246D02*
X02481Y-02595D01*
X02506Y-0262*
X02536Y-0265*
X02761*
X00716Y-0219D02*
X00724Y-02197D01*
G54D14*
X02171Y-01883D03*
Y-01977D03*
X03266Y-01163D03*
Y-01257D03*
Y-01693D03*
Y-01787D03*
G54D35*
X03465Y-0066D02*
X03735D01*
X0286Y-02671D02*
Y-02265D01*
X0237Y-01775D02*
X0286Y-02265D01*
X02365Y-01769D02*
X0237D01*
Y-01775D02*
Y-01769D01*
X03456Y-0158D02*
Y-01579D01*
X0346Y-01575*
X0375Y-00529D02*
X03759Y-0052D01*
X03717Y-0053D02*
X03718Y-00529D01*
X03345Y-0084D02*
D01*
X03752Y-00645D02*
X03765D01*
X03729Y-00667D02*
X03752Y-00645D01*
X03727Y-00667D02*
X03735Y-0066D01*
X03727Y-00667D02*
X03729D01*
X03656Y-01575D02*
X03676Y-01595D01*
X02795Y-00845D02*
X028Y-0084D01*
X02791Y-0274D02*
X0286Y-02671D01*
X01726Y-0024D02*
Y-0021D01*
G54D36*
X02776Y-0255D02*
X0278Y-02545D01*
Y-02334*
X02785Y-0233*
X0345Y-0105D02*
X0346Y-0106D01*
Y-01065D02*
Y-0106D01*
G54D37*
X04562Y-00929D02*
X04571Y-00939D01*
X0397Y-00929D02*
X04562D01*
X04571Y-0094D02*
Y-00939D01*
X04175Y-012D02*
Y-0099D01*
Y-012D02*
X04285Y-0131D01*
Y-01468D02*
Y-0131D01*
Y-01468D02*
X04476Y-0166D01*
X03465Y-00929D02*
X0397D01*
X0234Y-00964D02*
Y-0087D01*
Y-0028*
X04132Y-00947D02*
X04175Y-0099D01*
X02865Y-01145D02*
X0295D01*
X03385Y-0158D02*
X03456D01*
X0295Y-01145D02*
X03385Y-0158D01*
X03085Y-0105D02*
X0345D01*
X0296D02*
X03085D01*
X02865Y-01145D02*
X0296Y-0105D01*
X02945Y-00545D02*
X03335D01*
X0277Y-0072D02*
X02945Y-00545D01*
X04334Y-0028D02*
X04467Y-00412D01*
X03759Y-0028D02*
X04334D01*
X04467Y-00412D02*
X04489Y-00435D01*
X01755Y-0087D02*
X0233D01*
X01706Y-00918D02*
X01755Y-0087D01*
X01706Y-00985D02*
Y-00918D01*
X028Y-0084D02*
X03345D01*
X00401Y-0219D02*
X00581Y-0201D01*
X01295*
X0234Y-00964*
X03676Y-01595D02*
X03838D01*
X04013Y-0177*
X04476Y-0166D02*
X04586D01*
X04013Y-0177D02*
X04571D01*
G54D39*
X01811Y-0028D02*
X0234D01*
X02455*
X03759D02*
X03759D01*
X03455D02*
X03759D01*
X03455Y-0072D02*
Y-0028D01*
Y-0091D02*
Y-00715D01*
X03165Y-0028D02*
X03455D01*
X02455D02*
X02982D01*
X03165*
G54D40*
X02983Y-00085D03*
G54D41*
X02786Y-00085D03*
X00761Y-00738D03*
G54D42*
X01395Y-0241D03*
X01295D03*
X01195D03*
X02255Y-0008D03*
X02355D03*
X02455D03*
X02555D03*
X01806Y-00275D03*
X01801Y-0219D03*
X01701D03*
X01601D03*
X01501D03*
X01401D03*
X01301D03*
X01201D03*
X01101D03*
X01001D03*
X00901D03*
X00801D03*
X00701D03*
X00601D03*
X00501D03*
X00401D03*
X00406Y-00985D03*
X00506D03*
X00606D03*
X00706D03*
X00806D03*
X00906D03*
X01006D03*
X01106D03*
X01206D03*
X01306D03*
X01406D03*
X01506D03*
X01606D03*
X01706D03*
X01806D03*
X01085Y-026D03*
X02561Y-01769D03*
X02865Y-01145D03*
X03335Y-00545D03*
X0366Y-0105D03*
X02795Y-00845D03*
X03347Y-0084D03*
X0277Y-0072D03*
G54D43*
X01095Y-0241D03*
X02155Y-0008D03*
X00301Y-0219D03*
X00306Y-00985D03*
G54D44*
X01706Y-00225D03*
X02676Y-025D03*
G54D45*
X01806Y-00375D03*
X01706Y-00425D03*
Y-00325D03*
X01806Y-00475D03*
X01706Y-00525D03*
X01806Y-00575D03*
X02776Y-0265D03*
X02676Y-027D03*
Y-026D03*
X02776Y-0275D03*
Y-0255D03*
X02676Y-028D03*
X02776Y-0285D03*
G54D46*
X01456Y-00175D03*
Y-00625D03*
X02426Y-0245D03*
Y-029D03*
G54D47*
X01339Y-00094D03*
Y-00705D03*
X02309Y-02369D03*
Y-0298D03*
G54D48*
X00761Y-00541D03*
G54D49*
X04576Y-01035D03*
Y-01395D03*
X04571Y-0176D03*
G54D50*
X04576Y-00935D03*
Y-01295D03*
X04571Y-0166D03*
G54D51*
X04285Y-0131D03*
X00574Y-00165D03*
X00375Y-00145D03*
X02095Y-0051D03*
X03125Y-00435D03*
X03565Y-02105D03*
X02785Y-0233D03*
X02965Y-01605D03*
X01388Y-02655D03*
X0125Y-026D03*
X00525Y-0308D03*
X00361Y-0259D03*
X00571Y-0057D03*
X0049D03*
X03563Y-01414D03*
X02468Y-02134D03*
X0242Y-007D03*
X00195Y-0056D03*
X0104Y-0047D03*
X01776Y-02325D03*
X01685Y-0245D03*
X00416Y-02325D03*
X00731Y-0042D03*
G54D52*
X04489Y-00435D03*
G54D53*
X03765Y-0079D03*
Y-00645D03*
X03759Y-0052D03*
Y-0039D03*
Y-0028D03*
X03764Y-00165D03*
G54D54*
X00125Y-00224D03*
X045Y-00214D03*
X04516Y-02805D03*
X00141Y-02815D03*
G54D55*
X0346Y-01458D03*
X03563D03*
X03656D03*
X00481Y-00175D03*
Y-00603D03*
X00574D03*
Y-00175D03*
X00378D03*
X02561Y-02173D03*
X02468D03*
X02365D03*
Y-01745D03*
X02468D03*
X02561D03*
X0346Y-0103D03*
X03563D03*
X03656D03*
Y-02008D03*
X03563D03*
X0346D03*
Y-0158D03*
X03563D03*
X03656D03*
X00378Y-00603D03*
M02*