%FSTAX23Y23*%
%MOIN*%
%SFA1B1*%

%IPPOS*%
%ADD10C,0.010000*%
%ADD11C,0.007874*%
%ADD12C,0.047244*%
%LNbinbot_board_ver4-1*%
%LPD*%
G54D10*
X0174Y-0025D02*
X0201D01*
X0095Y-00045D02*
X0122D01*
X0095Y-0025D02*
Y-00045D01*
Y-0025D02*
X0122D01*
X01923Y-00045D02*
X0201D01*
X0174D02*
X01821D01*
X01923*
X0201Y-0025D02*
Y-00045D01*
X0122Y-0025D02*
Y-00045D01*
Y-0025D02*
X0174D01*
Y-00165*
Y-00045*
X0122D02*
X0174D01*
X044Y-0227D02*
Y-02225D01*
X04355Y-0227D02*
X044D01*
X0004Y-0091D02*
Y-0227D01*
X04355*
X044Y-02225D02*
Y-0091D01*
X0004D02*
X044D01*
X04135Y-00465D02*
X04155D01*
Y-001*
Y-0087D02*
Y-00465D01*
X0365Y-0087D02*
X04155D01*
X0365D02*
Y-00465D01*
Y-001*
Y-00465D02*
X04155D01*
X04075Y-001D02*
X04155D01*
X0365D02*
X04075D01*
X00281Y-0039D02*
X00242D01*
Y-0037*
X00248Y-00364*
X00261*
X00268Y-0037*
Y-0039*
Y-00377D02*
X00281Y-00364D01*
X00248Y-0035D02*
X00242Y-00344D01*
Y-00331*
X00248Y-00324*
X00255*
X00261Y-00331*
Y-00337*
Y-00331*
X00268Y-00324*
X00274*
X00281Y-00331*
Y-00344*
X00274Y-0035*
X04471Y-00527D02*
X04464Y-0052D01*
X04451*
X04445Y-00527*
Y-00553*
X04451Y-0056*
X04464*
X04471Y-00553*
Y-0054*
X04458*
X04484Y-0056D02*
Y-00533D01*
X04504*
X0451Y-0054*
Y-0056*
X04549Y-0052D02*
Y-0056D01*
X0453*
X04523Y-00553*
Y-0054*
X0453Y-00533*
X04549*
X04216Y-00639D02*
X04209Y-00632D01*
X04196*
X0419Y-00639*
Y-00645*
X04196Y-00652*
X04209*
X04216Y-00658*
Y-00665*
X04209Y-00671*
X04196*
X0419Y-00665*
X04235Y-00639D02*
Y-00645D01*
X04229*
X04242*
X04235*
Y-00665*
X04242Y-00671*
X04281D02*
X04268D01*
X04262Y-00665*
Y-00652*
X04268Y-00645*
X04281*
X04288Y-00652*
Y-00658*
X04262*
X04301Y-00685D02*
Y-00645D01*
X04321*
X04327Y-00652*
Y-00665*
X04321Y-00671*
X04301*
X0438Y-00645D02*
Y-00665D01*
X04386Y-00671*
X04406*
Y-00645*
X04419Y-00685D02*
Y-00645D01*
X04439*
X04445Y-00652*
Y-00665*
X04439Y-00671*
X04419*
X04498Y-00632D02*
Y-00671D01*
X04517*
X04524Y-00665*
Y-00639*
X04517Y-00632*
X04498*
X04563Y-00639D02*
X04557Y-00632D01*
X04544*
X04537Y-00639*
Y-00665*
X04544Y-00671*
X04557*
X04563Y-00665*
X0418Y-00287D02*
Y-00326D01*
X04199*
X04206Y-0032*
Y-00313*
X04199Y-00307*
X0418*
X04199*
X04206Y-003*
Y-00294*
X04199Y-00287*
X0418*
X04225Y-003D02*
X04239D01*
X04245Y-00307*
Y-00326*
X04225*
X04219Y-0032*
X04225Y-00313*
X04245*
X04265Y-00294D02*
Y-003D01*
X04258*
X04271*
X04265*
Y-0032*
X04271Y-00326*
X04298Y-00294D02*
Y-003D01*
X04291*
X04304*
X04298*
Y-0032*
X04304Y-00326*
X04343D02*
X0433D01*
X04324Y-0032*
Y-00307*
X0433Y-003*
X04343*
X0435Y-00307*
Y-00313*
X04324*
X04363Y-003D02*
Y-00326D01*
Y-00313*
X0437Y-00307*
X04376Y-003*
X04383*
X04403D02*
Y-0032D01*
X04409Y-00326*
X04429*
Y-00333*
X04422Y-0034*
X04416*
X04429Y-00326D02*
Y-003D01*
X0193Y-00175D02*
X01956D01*
X01943*
Y-00215*
X01795Y-00175D02*
X01821D01*
X01808*
Y-00215*
X01286Y-00182D02*
X01279Y-00175D01*
X01266*
X0126Y-00182*
Y-00208*
X01266Y-00215*
X01279*
X01286Y-00208*
Y-00195*
X01273*
X02811Y-02882D02*
X02804Y-02875D01*
X02791*
X02785Y-02882*
Y-02888*
X02791Y-02895*
X02804*
X02811Y-02901*
Y-02908*
X02804Y-02915*
X02791*
X02785Y-02908*
X02376Y-02872D02*
X02369Y-02865D01*
X02356*
X0235Y-02872*
Y-02878*
X02356Y-02885*
X02369*
X02376Y-02891*
Y-02898*
X02369Y-02905*
X02356*
X0235Y-02898*
X01316Y-00617D02*
X01309Y-0061D01*
X01296*
X0129Y-00617*
Y-00623*
X01296Y-0063*
X01309*
X01316Y-00636*
Y-00643*
X01309Y-0065*
X01296*
X0129Y-00643*
X014Y-00175D02*
Y-00182D01*
X01413Y-00195*
X01426Y-00182*
Y-00175*
X01413Y-00195D02*
Y-00215D01*
X0167Y-00175D02*
Y-00215D01*
X01689*
X01696Y-00208*
Y-00201*
X01689Y-00195*
X0167*
X01689*
X01696Y-00188*
Y-00182*
X01689Y-00175*
X0167*
X0153Y-00215D02*
Y-00175D01*
X01549*
X01556Y-00182*
Y-00195*
X01549Y-00201*
X0153*
X01543D02*
X01556Y-00215D01*
X00965Y-02405D02*
X01004D01*
X00984Y-02385D02*
Y-02425D01*
X0125Y-025D02*
Y-0254D01*
X01269*
X01276Y-02533*
Y-02507*
X01269Y-025*
X0125*
X01295Y-02513D02*
X01309D01*
X01315Y-0252*
Y-0254*
X01295*
X01289Y-02533*
X01295Y-02526*
X01315*
X01386Y-02507D02*
X01379Y-025D01*
X01366*
X0136Y-02507*
Y-02533*
X01366Y-0254*
X01379*
X01386Y-02533*
X01399Y-0254D02*
X01412D01*
X01405*
Y-025*
X01399*
X00955Y-0268D02*
Y-02653D01*
X00974*
X00981Y-0266*
Y-0268*
X01D02*
Y-02647D01*
Y-0266*
X00994*
X01007*
X01*
Y-02647*
X01007Y-0264*
X01053Y-02653D02*
X01033D01*
X01027Y-0266*
Y-02673*
X01033Y-0268*
X01053*
X01105Y-02653D02*
Y-0268D01*
Y-02666*
X01112Y-0266*
X01118Y-02653*
X01125*
X01145Y-0268D02*
X01164D01*
X01171Y-02673*
X01164Y-02666*
X01151*
X01145Y-0266*
X01151Y-02653*
X01171*
X01191Y-02647D02*
Y-02653D01*
X01184*
X01197*
X01191*
Y-02673*
X01197Y-0268*
X03871Y-00632D02*
X03864Y-00625D01*
X03851*
X03845Y-00632*
Y-00658*
X03851Y-00665*
X03864*
X03871Y-00658*
Y-00645*
X03858*
X03884Y-00665D02*
Y-00638D01*
X03904*
X0391Y-00645*
Y-00665*
X03949Y-00625D02*
Y-00665D01*
X0393*
X03923Y-00658*
Y-00645*
X0393Y-00638*
X03949*
X03845Y-0081D02*
X03858D01*
X03851*
Y-0077*
X03845Y-00777*
X03904Y-0081D02*
X03877D01*
X03904Y-00783*
Y-00777*
X03897Y-0077*
X03884*
X03877Y-00777*
X03917Y-0077D02*
Y-00796D01*
X0393Y-0081*
X03943Y-00796*
Y-0077*
X03995D02*
Y-0081D01*
X04015*
X04022Y-00803*
Y-00777*
X04015Y-0077*
X03995*
X04061Y-00777D02*
X04054Y-0077D01*
X04041*
X04035Y-00777*
Y-00803*
X04041Y-0081*
X04054*
X04061Y-00803*
X04074Y-0081D02*
X04087D01*
X04081*
Y-00783*
X04074*
X04107Y-0081D02*
Y-00783D01*
X04127*
X04133Y-0079*
Y-0081*
X03845Y-00367D02*
Y-00406D01*
X03858Y-00393*
X03871Y-00406*
Y-00367*
X0389Y-0038D02*
X03904D01*
X0391Y-00387*
Y-00406*
X0389*
X03884Y-004*
X0389Y-00393*
X0391*
X03923Y-00406D02*
Y-00367D01*
Y-00393D02*
X03943Y-0038D01*
X03923Y-00393D02*
X03943Y-00406D01*
X03982D02*
X03969D01*
X03963Y-004*
Y-00387*
X03969Y-0038*
X03982*
X03989Y-00387*
Y-00393*
X03963*
X04041Y-0038D02*
Y-004D01*
X04048Y-00406*
X04068*
Y-0038*
X04081Y-0042D02*
Y-0038D01*
X041*
X04107Y-00387*
Y-004*
X041Y-00406*
X04081*
X03871Y-00272D02*
X03864Y-00265D01*
X03851*
X03845Y-00272*
Y-00298*
X03851Y-00305*
X03864*
X03871Y-00298*
Y-00285*
X03858*
X03884Y-00305D02*
Y-00278D01*
X03904*
X0391Y-00285*
Y-00305*
X03949Y-00265D02*
Y-00305D01*
X0393*
X03923Y-00298*
Y-00285*
X0393Y-00278*
X03949*
X03871Y-0016D02*
X03845D01*
Y-0018*
X03858Y-00173*
X03864*
X03871Y-0018*
Y-00193*
X03864Y-002*
X03851*
X03845Y-00193*
X03884Y-0016D02*
Y-00186D01*
X03897Y-002*
X0391Y-00186*
Y-0016*
X03963D02*
Y-002D01*
X03982*
X03989Y-00193*
Y-00186*
Y-0018*
X03982Y-00173*
X03963*
X04008D02*
X04022D01*
X04028Y-0018*
Y-002*
X04008*
X04002Y-00193*
X04008Y-00186*
X04028*
X04048Y-00167D02*
Y-00173D01*
X04041*
X04054*
X04048*
Y-00193*
X04054Y-002*
X0263Y-00095D02*
X02669D01*
X02649Y-00075D02*
Y-00115D01*
X0454Y-01525D02*
Y-01485D01*
X04559*
X04566Y-01492*
Y-01505*
X04559Y-01511*
X0454*
X04553D02*
X04566Y-01525D01*
X04579Y-01485D02*
X04605Y-01525D01*
Y-01485D02*
X04579Y-01525D01*
X03876Y-00505D02*
X0385D01*
Y-00525*
X03863Y-00518*
X03869*
X03876Y-00525*
Y-00538*
X03869Y-00545*
X03856*
X0385Y-00538*
X03889Y-00505D02*
Y-00531D01*
X03902Y-00545*
X03915Y-00531*
Y-00505*
X03968D02*
Y-00545D01*
X03987*
X03994Y-00538*
Y-00512*
X03987Y-00505*
X03968*
X04033Y-00512D02*
X04027Y-00505D01*
X04013*
X04007Y-00512*
Y-00538*
X04013Y-00545*
X04027*
X04033Y-00538*
X036Y-02381D02*
X03652Y-0246D01*
Y-02381D02*
X036Y-0246D01*
X03678D02*
Y-02381D01*
X03718*
X03731Y-02394*
Y-0242*
X03718Y-02433*
X03678*
X03704D02*
X03731Y-0246D01*
X03796Y-02381D02*
X0377D01*
X03757Y-02394*
Y-02446*
X0377Y-0246*
X03796*
X03809Y-02446*
Y-02394*
X03796Y-02381*
X03836D02*
Y-0246D01*
X03875*
X03888Y-02446*
Y-02433*
X03875Y-0242*
X03836*
X03875*
X03888Y-02407*
Y-02394*
X03875Y-02381*
X03836*
X03954D02*
X03927D01*
X03914Y-02394*
Y-02446*
X03927Y-0246*
X03954*
X03967Y-02446*
Y-02394*
X03954Y-02381*
X03993D02*
X04046D01*
X04019*
Y-0246*
X04072Y-02381D02*
X04098D01*
X04085*
Y-0246*
X04072*
X04098*
X0419Y-02394D02*
X04177Y-02381D01*
X04151*
X04137Y-02394*
Y-02446*
X04151Y-0246*
X04177*
X0419Y-02446*
X04269Y-02394D02*
X04255Y-02381D01*
X04229*
X04216Y-02394*
Y-02407*
X04229Y-0242*
X04255*
X04269Y-02433*
Y-02446*
X04255Y-0246*
X04229*
X04216Y-02446*
X0363Y-02541D02*
Y-0262D01*
X03669*
X03682Y-02606*
Y-02593*
X03669Y-0258*
X0363*
X03669*
X03682Y-02567*
Y-02554*
X03669Y-02541*
X0363*
X03708Y-0262D02*
X03734D01*
X03721*
Y-02567*
X03708*
X03774Y-0262D02*
Y-02567D01*
X03813*
X03826Y-0258*
Y-0262*
X03853Y-02541D02*
Y-0262D01*
X03892*
X03905Y-02606*
Y-02593*
Y-0258*
X03892Y-02567*
X03853*
X03944Y-0262D02*
X03971D01*
X03984Y-02606*
Y-0258*
X03971Y-02567*
X03944*
X03931Y-0258*
Y-02606*
X03944Y-0262*
X04023Y-02554D02*
Y-02567D01*
X0401*
X04036*
X04023*
Y-02606*
X04036Y-0262*
X04556Y-01135D02*
X04596D01*
X04576Y-01115D02*
Y-01155D01*
X04546Y-01885D02*
X04586D01*
X04566Y-01865D02*
Y-01905D01*
X0338Y-02831D02*
Y-02771D01*
X034Y-02791*
X0342Y-02771*
Y-02831*
X0344D02*
Y-02771D01*
X0347*
X0348Y-02781*
Y-02801*
X0347Y-02811*
X0344*
X035Y-02771D02*
Y-02821D01*
X0351Y-02831*
X0353*
X0354Y-02821*
Y-02771*
X036D02*
X0358Y-02781D01*
X0356Y-02801*
Y-02821*
X0357Y-02831*
X0359*
X036Y-02821*
Y-02811*
X0359Y-02801*
X0356*
X0362Y-02781D02*
X0363Y-02771D01*
X0365*
X0366Y-02781*
Y-02821*
X0365Y-02831*
X0363*
X0362Y-02821*
Y-02781*
X0372Y-02771D02*
X0368D01*
Y-02801*
X037Y-02791*
X0371*
X0372Y-02801*
Y-02821*
X0371Y-02831*
X0369*
X0368Y-02821*
X0374Y-02781D02*
X0375Y-02771D01*
X0377*
X0378Y-02781*
Y-02821*
X0377Y-02831*
X0375*
X0374Y-02821*
Y-02781*
X01019Y-00511D02*
X01012Y-00505D01*
X00999*
X00993Y-00511*
Y-00518*
X00999Y-00525*
X01012*
X01019Y-00531*
Y-00538*
X01012Y-00544*
X00999*
X00993Y-00538*
X01052Y-00544D02*
X01039D01*
X01032Y-00538*
Y-00525*
X01039Y-00518*
X01052*
X01058Y-00525*
Y-00531*
X01032*
X01071Y-00518D02*
Y-00544D01*
Y-00531*
X01078Y-00525*
X01085Y-00518*
X01091*
X01111D02*
X01124Y-00544D01*
X01137Y-00518*
X01157Y-00544D02*
X0117D01*
X01176Y-00538*
Y-00525*
X0117Y-00518*
X01157*
X0115Y-00525*
Y-00538*
X01157Y-00544*
X02866Y-02781D02*
X02859Y-02775D01*
X02846*
X02839Y-02781*
Y-02808*
X02846Y-02814*
X02859*
X02866Y-02808*
X02885Y-02814D02*
X02898D01*
X02905Y-02808*
Y-02795*
X02898Y-02788*
X02885*
X02879Y-02795*
Y-02808*
X02885Y-02814*
X02918Y-02788D02*
X02931Y-02814D01*
X02944Y-02788*
X02977Y-02814D02*
X02964D01*
X02958Y-02808*
Y-02795*
X02964Y-02788*
X02977*
X02984Y-02795*
Y-02801*
X02958*
X02997Y-02788D02*
Y-02814D01*
Y-02801*
X03003Y-02795*
X0301Y-02788*
X03017*
X03056Y-02775D02*
X03043D01*
X03036Y-02781*
Y-02808*
X03043Y-02814*
X03056*
X03062Y-02808*
Y-02781*
X03056Y-02775*
X03076Y-02814D02*
Y-02788D01*
X03095*
X03102Y-02795*
Y-02814*
X03115D02*
X03141Y-02788D01*
X03174Y-02775D02*
X03161D01*
X03154Y-02781*
Y-02808*
X03161Y-02814*
X03174*
X03181Y-02808*
Y-02781*
X03174Y-02775*
X032Y-02814D02*
Y-02781D01*
Y-02795*
X03194*
X03207*
X032*
Y-02781*
X03207Y-02775*
X03233Y-02814D02*
Y-02781D01*
Y-02795*
X03226*
X0324*
X03233*
Y-02781*
X0324Y-02775*
X025Y-02771D02*
X02493Y-02765D01*
X0248*
X02473Y-02771*
Y-02778*
X0248Y-02785*
X02493*
X025Y-02791*
Y-02798*
X02493Y-02804*
X0248*
X02473Y-02798*
X02532Y-02804D02*
X02519D01*
X02513Y-02798*
Y-02785*
X02519Y-02778*
X02532*
X02539Y-02785*
Y-02791*
X02513*
X02552Y-02804D02*
Y-02778D01*
X02572*
X02578Y-02785*
Y-02804*
X02591D02*
X02611D01*
X02618Y-02798*
X02611Y-02791*
X02598*
X02591Y-02785*
X02598Y-02778*
X02618*
X02637Y-02804D02*
X0265D01*
X02657Y-02798*
Y-02785*
X0265Y-02778*
X02637*
X02631Y-02785*
Y-02798*
X02637Y-02804*
X0267Y-02778D02*
Y-02804D01*
Y-02791*
X02677Y-02785*
X02683Y-02778*
X0269*
X02736Y-02804D02*
X02709D01*
X02736Y-02778*
Y-02771*
X02729Y-02765*
X02716*
X02709Y-02771*
X02071D02*
X02065Y-02765D01*
X02051*
X02045Y-02771*
Y-02778*
X02051Y-02785*
X02065*
X02071Y-02791*
Y-02798*
X02065Y-02804*
X02051*
X02045Y-02798*
X02104Y-02804D02*
X02091D01*
X02084Y-02798*
Y-02785*
X02091Y-02778*
X02104*
X0211Y-02785*
Y-02791*
X02084*
X02124Y-02804D02*
Y-02778D01*
X02143*
X0215Y-02785*
Y-02804*
X02163D02*
X02183D01*
X02189Y-02798*
X02183Y-02791*
X0217*
X02163Y-02785*
X0217Y-02778*
X02189*
X02209Y-02804D02*
X02222D01*
X02229Y-02798*
Y-02785*
X02222Y-02778*
X02209*
X02202Y-02785*
Y-02798*
X02209Y-02804*
X02242Y-02778D02*
Y-02804D01*
Y-02791*
X02248Y-02785*
X02255Y-02778*
X02261*
X02281Y-02804D02*
X02294D01*
X02288*
Y-02765*
X02281Y-02771*
X0105Y-02326D02*
Y-02299D01*
X0107*
X01077Y-02306*
Y-02326*
X01096D02*
Y-02293D01*
Y-02306*
X0109*
X01103*
X01096*
Y-02293*
X01103Y-02286*
X01149Y-02299D02*
X01129D01*
X01122Y-02306*
Y-02319*
X01129Y-02326*
X01149*
X00636Y-02465D02*
X00597D01*
Y-02445*
X00604Y-02438*
X00617*
X00623Y-02445*
Y-02465*
Y-02451D02*
X00636Y-02438D01*
Y-02425D02*
Y-02412D01*
Y-02419*
X00597*
X00604Y-02425*
X00636Y-02392D02*
Y-02379D01*
Y-02386*
X00597*
X00604Y-02392*
X04474Y-01777D02*
X04448D01*
X04435Y-01764*
X04448Y-01751*
X04474*
X04455*
Y-01777*
X04435Y-01738D02*
X04474D01*
Y-01711*
Y-01698D02*
X04435D01*
X04448Y-01685*
X04435Y-01672*
X04474*
X04484Y-01456D02*
X04445D01*
Y-01437*
X04451Y-0143*
X04465*
X04471Y-01437*
Y-01456*
Y-01443D02*
X04484Y-0143D01*
X04451Y-01391D02*
X04445Y-01397D01*
Y-0141*
X04451Y-01417*
X04458*
X04465Y-0141*
Y-01397*
X04471Y-01391*
X04478*
X04484Y-01397*
Y-0141*
X04478Y-01417*
X04484Y-01351D02*
Y-01378D01*
X04458Y-01351*
X04451*
X04445Y-01358*
Y-01371*
X04451Y-01378*
Y-01338D02*
X04445Y-01332D01*
Y-01319*
X04451Y-01312*
X04458*
X04465Y-01319*
Y-01325*
Y-01319*
X04471Y-01312*
X04478*
X04484Y-01319*
Y-01332*
X04478Y-01338*
X04484Y-01273D02*
Y-01299D01*
X04458Y-01273*
X04451*
X04445Y-01279*
Y-01292*
X04451Y-01299*
X04445Y-01119D02*
Y-01106D01*
Y-01113*
X04484*
Y-01119*
Y-01106*
Y-01086D02*
X04458D01*
Y-01067*
X04465Y-0106*
X04484*
X04445Y-01021D02*
X04484D01*
Y-0104*
X04478Y-01047*
X04465*
X04458Y-0104*
Y-01021*
X04484Y-00968D02*
X04445D01*
Y-00949*
X04451Y-00942*
X04465*
X04471Y-00949*
Y-00968*
X04458Y-00929D02*
X04478D01*
X04484Y-00922*
X04478Y-00916*
X04484Y-00909*
X04478Y-00903*
X04458*
Y-0089D02*
X04484D01*
X04471*
X04465Y-00883*
X04458Y-00876*
Y-0087*
X01501Y-02465D02*
X01462D01*
Y-02445*
X01469Y-02438*
X01482*
X01488Y-02445*
Y-02465*
Y-02451D02*
X01501Y-02438D01*
X01462Y-02425D02*
Y-02399D01*
X01469*
X01495Y-02425*
X01501*
X01671Y-02465D02*
X01632D01*
Y-02445*
X01639Y-02438*
X01652*
X01658Y-02445*
Y-02465*
Y-02451D02*
X01671Y-02438D01*
X01632Y-02399D02*
X01639Y-02412D01*
X01652Y-02425*
X01665*
X01671Y-02419*
Y-02405*
X01665Y-02399*
X01658*
X01652Y-02405*
Y-02425*
X00456Y-02465D02*
X00417D01*
Y-02445*
X00424Y-02438*
X00437*
X00443Y-02445*
Y-02465*
Y-02451D02*
X00456Y-02438D01*
X00417Y-02399D02*
Y-02425D01*
X00437*
X0043Y-02412*
Y-02405*
X00437Y-02399*
X0045*
X00456Y-02405*
Y-02419*
X0045Y-02425*
X00286Y-02465D02*
X00247D01*
Y-02445*
X00254Y-02438*
X00267*
X00273Y-02445*
Y-02465*
Y-02451D02*
X00286Y-02438D01*
Y-02405D02*
X00247D01*
X00267Y-02425*
Y-02399*
X00105Y-01859D02*
Y-01899D01*
X00164*
Y-01859*
X00135Y-01899D02*
Y-01879D01*
X00115Y-01799D02*
X00105Y-01809D01*
Y-01829*
X00115Y-01839*
X00125*
X00135Y-01829*
Y-01809*
X00144Y-01799*
X00154*
X00164Y-01809*
Y-01829*
X00154Y-01839*
X00164Y-01779D02*
X00105D01*
Y-01749*
X00115Y-01739*
X00135*
X00144Y-01749*
Y-01779*
X00115Y-01719D02*
X00105Y-01709D01*
Y-01689*
X00115Y-01679*
X00125*
X00135Y-01689*
Y-01699*
Y-01689*
X00144Y-01679*
X00154*
X00164Y-01689*
Y-01709*
X00154Y-01719*
X00164Y-01619D02*
Y-01659D01*
X00125Y-01619*
X00115*
X00105Y-01629*
Y-01649*
X00115Y-01659*
X00105Y-0154D02*
Y-015D01*
X00115*
X00154Y-0154*
X00164*
X00115Y-0148D02*
X00105Y-0147D01*
Y-0145*
X00115Y-0144*
X00154*
X00164Y-0145*
Y-0147*
X00154Y-0148*
X00115*
Y-0142D02*
X00105Y-0141D01*
Y-0139*
X00115Y-0138*
X00154*
X00164Y-0139*
Y-0141*
X00154Y-0142*
X00115*
Y-0136D02*
X00105Y-0135D01*
Y-0133*
X00115Y-0132*
X00154*
X00164Y-0133*
Y-0135*
X00154Y-0136*
X00115*
Y-0126D02*
X00105Y-0127D01*
Y-0129*
X00115Y-013*
X00154*
X00164Y-0129*
Y-0127*
X00154Y-0126*
X00135*
Y-0128*
G54D11*
X01856Y-01035D02*
Y-00935D01*
X00331D02*
X01856D01*
X00256D02*
X00331D01*
X00256Y-01035D02*
Y-00935D01*
Y-01035D02*
X01856D01*
X04175Y-02965D02*
Y-02865D01*
X03375Y-02965D02*
X04175D01*
X03375D02*
Y-02865D01*
X04175*
X0094Y-00685D02*
X0124D01*
Y-00585*
X0094D02*
X0124D01*
X0094Y-00685D02*
Y-00585D01*
X02905Y-0285D02*
X03105D01*
X02905Y-0295D02*
Y-0285D01*
Y-0295D02*
X03105D01*
Y-0285*
X02455Y-0295D02*
X02755D01*
Y-0285*
X02455D02*
X02755D01*
X02455Y-0295D02*
Y-0285D01*
X0202Y-0295D02*
X0232D01*
Y-0285*
X0202D02*
X0232D01*
X0202Y-0295D02*
Y-0285D01*
X01045Y-0246D02*
Y-0236D01*
X01445*
X01045Y-0246D02*
X01445D01*
Y-0236*
X02605Y-0015D02*
Y-0005D01*
X02105Y-0015D02*
X02605D01*
X02105Y-0005D02*
X02605D01*
X02105Y-0015D02*
Y-0005D01*
X01851Y-0224D02*
Y-0214D01*
X00326D02*
X01851D01*
X00251D02*
X00326D01*
X00251Y-0224D02*
Y-0214D01*
Y-0224D02*
X01851D01*
X00671Y-02395D02*
X00722D01*
X04526Y-00885D02*
X04626D01*
Y-01085D02*
Y-00885D01*
X04526Y-01085D02*
X04626D01*
X04526D02*
Y-00885D01*
Y-01245D02*
X04626D01*
Y-01445D02*
Y-01245D01*
X04526Y-01445D02*
X04626D01*
X04526D02*
Y-01245D01*
X04521Y-0161D02*
X04621D01*
Y-0181D02*
Y-0161D01*
X04521Y-0181D02*
X04621D01*
X04521D02*
Y-0161D01*
X01536Y-02395D02*
X01587D01*
X01706D02*
X01757D01*
X00491D02*
X00542D01*
X00321D02*
X00372D01*
X00176Y-00475D02*
X00227D01*
G54D12*
X04673Y-03135D02*
X04691Y-03117D01*
Y-00002*
X-00018Y-03135D02*
X04673D01*
X-00023Y0D02*
X04683D01*
X-00023Y-03135D02*
Y0D01*
M02*